<?xml version="1.0" encoding="UTF-8" standalone="no"?>
<!-- Created with Inkscape (http://www.inkscape.org/) -->

<svg
   width="200.19658mm"
   height="92.051926mm"
   viewBox="0 0 200.19658 92.051926"
   version="1.1"
   id="svg1"
   inkscape:version="1.3 (0e150ed, 2023-07-21)"
   sodipodi:docname="collaborative-diagram.svg"
   xmlns:inkscape="http://www.inkscape.org/namespaces/inkscape"
   xmlns:sodipodi="http://sodipodi.sourceforge.net/DTD/sodipodi-0.dtd"
   xmlns="http://www.w3.org/2000/svg"
   xmlns:svg="http://www.w3.org/2000/svg">
  <sodipodi:namedview
     id="namedview1"
     pagecolor="#000000"
     bordercolor="#000000"
     borderopacity="0.25"
     inkscape:showpageshadow="2"
     inkscape:pageopacity="0.0"
     inkscape:pagecheckerboard="0"
     inkscape:deskcolor="#d1d1d1"
     inkscape:document-units="mm"
     inkscape:zoom="0.49798462"
     inkscape:cx="533.14899"
     inkscape:cy="32.129506"
     inkscape:window-width="1312"
     inkscape:window-height="431"
     inkscape:window-x="0"
     inkscape:window-y="34"
     inkscape:window-maximized="0"
     inkscape:current-layer="layer1" />
  <defs
     id="defs1" />
  <g
     inkscape:label="Layer 1"
     inkscape:groupmode="layer"
     id="layer1"
     transform="translate(-14.735785,-29.395716)">
    <g
       id="path1">
      <path
         style="color:#000000;fill:#808080;stroke-linejoin:round;stroke-miterlimit:3.9;-inkscape-stroke:none"
         d="M 14.735785,44.898098 H 201.46582"
         id="path37" />
      <path
         style="color:#000000;fill:#ececec;stroke-linejoin:round;stroke-miterlimit:3.9;-inkscape-stroke:none"
         d="m 14.736328,44.398437 v 1 H 201.46484 v -1 z"
         id="path38" />
      <g
         id="g34">
        <g
           id="path34">
          <path
             style="color:#000000;fill:#ececec;fill-rule:evenodd;-inkscape-stroke:none"
             d="m 204.46582,44.898098 c -1.5,0.5 -3.5,1.5 -4.5,2.5 0,0 0,-2 1,-2.5 -1,-0.5 -1,-2.5 -1,-2.5 1,1 3,2 4.5,2.5 z"
             id="path35" />
          <path
             style="color:#000000;fill:#ececec;fill-rule:evenodd;-inkscape-stroke:none"
             d="m 199.63281,41.59375 v 0.804687 c 0,0 -0.001,0.531433 0.13281,1.134766 0.10674,0.480312 0.35218,0.990216 0.75586,1.365234 -0.40296,0.375016 -0.64921,0.88533 -0.75586,1.365235 -0.13407,0.603333 -0.13281,1.134766 -0.13281,1.134765 v 0.804688 l 0.56836,-0.568359 c 0.92143,-0.921432 2.91131,-1.933977 4.36914,-2.419922 l 0.94922,-0.316407 -0.94922,-0.316406 c -1.45783,-0.485945 -3.44771,-1.49849 -4.36914,-2.419922 z m 0.74805,1.498047 c 0.93226,0.730894 2.09337,1.354411 3.25,1.80664 -1.15663,0.45223 -2.31774,1.075747 -3.25,1.806641 0.0172,-0.135651 4e-4,-0.140477 0.0352,-0.296875 0.11592,-0.521665 0.35822,-1.042395 0.69921,-1.212891 l 0.59571,-0.296875 -0.59571,-0.298828 c -0.34099,-0.170495 -0.58329,-0.689272 -0.69921,-1.210937 -0.0348,-0.156398 -0.018,-0.161224 -0.0352,-0.296875 z"
             id="path36" />
        </g>
      </g>
    </g>
    <path
       style="font-size:11.2889px;font-family:Futura;-inkscape-font-specification:Futura;text-align:center;letter-spacing:0px;word-spacing:0px;text-anchor:middle;fill:#ececec;stroke-width:2;stroke-linejoin:round;stroke-miterlimit:3.9"
       d="m 196.44458,34.226287 v 4.211289 h -1.24023 v -4.211289 h -0.52917 v -1.157553 h 0.52917 v -1.967841 h 1.24023 v 1.967841 h 0.96463 v 1.157553 z m 3.04823,-1.157553 v 5.368842 h -1.24024 v -5.368842 z m -1.42765,-2.232424 q 0,-0.325217 0.23702,-0.56224 0.23702,-0.237023 0.56775,-0.237023 0.33624,0 0.57327,0.237023 0.23702,0.23151 0.23702,0.567752 0,0.336242 -0.23702,0.573265 -0.23151,0.237022 -0.56776,0.237022 -0.33624,0 -0.57326,-0.237022 -0.23702,-0.237023 -0.23702,-0.578777 z m 2.99861,2.232424 h 1.24024 v 0.496094 q 0.35829,-0.374826 0.61185,-0.507118 0.27009,-0.137804 0.67799,-0.137804 0.90951,0 1.43867,0.793751 0.58429,-0.793751 1.58199,-0.793751 1.8135,0 1.8135,2.199351 v 3.318319 h -1.24574 v -2.982077 q 0,-0.771703 -0.18742,-1.091408 -0.19292,-0.325217 -0.6339,-0.325217 -0.51263,0 -0.74965,0.385851 -0.23151,0.385851 -0.23151,1.240236 v 2.772615 h -1.24575 v -2.965541 q 0,-1.433161 -0.82682,-1.433161 -0.52366,0 -0.76619,0.391363 -0.23702,0.391363 -0.23702,1.234724 v 2.772615 h -1.24024 z m 13.81898,2.976566 h -3.84748 q 0.0496,0.661459 0.42994,1.052822 0.38034,0.385851 0.97566,0.385851 0.46302,0 0.76619,-0.220486 0.29765,-0.220487 0.67799,-0.8158 l 1.04731,0.584289 q -0.24253,0.413412 -0.51263,0.711068 -0.2701,0.292145 -0.57878,0.48507 -0.30868,0.187414 -0.66697,0.275608 -0.35829,0.08819 -0.77721,0.08819 -1.20165,0 -1.92926,-0.771702 -0.7276,-0.777215 -0.7276,-2.061548 0,-1.273308 0.70555,-2.061547 0.71107,-0.777214 1.88516,-0.777214 1.18512,0 1.87414,0.755165 0.6835,0.749654 0.6835,2.078084 z m -1.27331,-1.014238 q -0.25907,-0.992188 -1.25126,-0.992188 -0.226,0 -0.42443,0.07166 -0.19844,0.06615 -0.36381,0.198438 -0.15985,0.126779 -0.2756,0.308681 -0.11576,0.181901 -0.17639,0.413411 z"
       id="text1"
       aria-label="time" />
    <path
       style="fill:none;fill-opacity:1;stroke:#ffaaaa;stroke-width:1;stroke-linejoin:round;stroke-miterlimit:3.9;stroke-dasharray:none"
       d="M 15.781735,41.193002 H 92.015542"
       id="path2" />
    <path
       d="m 30.180549,30.946006 -0.781348,0.463021 q -0.219108,-0.380339 -0.417545,-0.496094 -0.206706,-0.132292 -0.533301,-0.132292 -0.40101,0 -0.665593,0.227377 -0.264584,0.223242 -0.264584,0.56224 0,0.467155 0.694532,0.752409 l 0.636654,0.260449 q 0.777214,0.314193 1.136882,0.768946 0.359668,0.450618 0.359668,1.107943 0,0.880567 -0.587045,1.455209 -0.591178,0.578776 -1.467611,0.578776 -0.830957,0 -1.372526,-0.49196 -0.533301,-0.49196 -0.665593,-1.384929 l 0.975651,-0.214974 q 0.06615,0.56224 0.231511,0.777214 0.297656,0.413412 0.868164,0.413412 0.450619,0 0.748275,-0.301791 0.297657,-0.30179 0.297657,-0.764811 0,-0.186035 -0.05374,-0.338998 -0.04961,-0.157096 -0.16123,-0.285254 -0.107487,-0.132291 -0.28112,-0.243913 -0.173633,-0.115755 -0.413412,-0.219108 l -0.615983,-0.256315 q -1.310515,-0.553972 -1.310515,-1.620574 0,-0.719336 0.549837,-1.203027 0.549838,-0.487826 1.368393,-0.487826 1.103809,0 1.723926,1.07487 z m 2.253094,2.273764 v 3.158465 H 31.503467 V 33.21977 h -0.396875 v -0.868164 h 0.396875 v -1.47588 h 0.930176 v 1.47588 h 0.72347 v 0.868164 z m 2.286166,-0.868164 v 2.310971 q 0,1.000456 0.789616,1.000456 0.789616,0 0.789616,-1.000456 v -2.310971 h 0.930177 v 2.331641 q 0,0.483692 -0.11989,0.835092 -0.115755,0.314193 -0.401009,0.566374 -0.471289,0.409277 -1.198894,0.409277 -0.72347,0 -1.194759,-0.409277 -0.289388,-0.252181 -0.409278,-0.566374 -0.115755,-0.28112 -0.115755,-0.835092 v -2.331641 z m 6.651793,-2.955893 h 0.93431 v 6.982522 h -0.93431 v -0.42168 q -0.549838,0.537435 -1.244369,0.537435 -0.826824,0 -1.372527,-0.603581 -0.541569,-0.615983 -0.541569,-1.537891 0,-0.901237 0.541569,-1.504818 0.537435,-0.607715 1.351856,-0.607715 0.706934,0 1.26504,0.578776 z m -2.207618,4.956805 q 0,0.578776 0.310058,0.942578 0.318327,0.367937 0.802019,0.367937 0.516764,0 0.835091,-0.355534 0.318327,-0.367937 0.318327,-0.934311 0,-0.566373 -0.318327,-0.93431 -0.318327,-0.359668 -0.826823,-0.359668 -0.479557,0 -0.802019,0.363802 -0.318326,0.367937 -0.318326,0.909506 z m 7.98298,0.23151 h -2.885613 q 0.03721,0.496094 0.322461,0.789617 0.285254,0.289388 0.731738,0.289388 0.347266,0 0.574642,-0.165365 0.223243,-0.165365 0.508497,-0.611849 l 0.785482,0.438216 q -0.181901,0.310059 -0.384473,0.533301 -0.202572,0.219108 -0.434082,0.363802 -0.231511,0.14056 -0.500228,0.206706 -0.268718,0.06615 -0.582911,0.06615 -0.901237,0 -1.44694,-0.578776 -0.545704,-0.582911 -0.545704,-1.54616 0,-0.95498 0.529167,-1.546159 0.533301,-0.58291 1.413868,-0.58291 0.888835,0 1.405599,0.566373 0.512631,0.56224 0.512631,1.558562 z m -0.954981,-0.760677 q -0.194304,-0.744141 -0.938445,-0.744141 -0.169498,0 -0.318327,0.05374 -0.148828,0.04961 -0.272851,0.148828 -0.11989,0.09508 -0.206706,0.23151 -0.08682,0.136426 -0.132292,0.310059 z m 1.971972,-1.471745 h 0.93431 v 0.37207 q 0.487826,-0.483691 1.099675,-0.483691 0.7028,0 1.095541,0.44235 0.338997,0.376205 0.338997,1.227832 v 2.468068 h -0.93431 v -2.248959 q 0,-0.595313 -0.165365,-0.822689 -0.16123,-0.231511 -0.587044,-0.231511 -0.463021,0 -0.657325,0.305925 -0.190169,0.30179 -0.190169,1.054199 v 1.943035 h -0.93431 z m 5.601727,0.868164 v 3.158465 H 52.835506 V 33.21977 h -0.396875 v -0.868164 h 0.396875 v -1.47588 h 0.930176 v 1.47588 h 0.723471 v 0.868164 z m 4.473115,-0.868164 1.0542,2.298568 1.136882,-2.666505 1.14515,2.666505 1.041797,-2.298568 h 1.041798 l -2.108399,4.328419 -1.120346,-2.592091 -1.132748,2.592091 -2.104265,-4.328419 z m 5.705081,1.984375 q 0,-0.872298 0.624252,-1.484147 0.624251,-0.611849 1.521355,-0.611849 0.901237,0 1.529623,0.615983 0.620117,0.615983 0.620117,1.513086 0,0.905372 -0.624251,1.517221 -0.628386,0.607715 -1.542026,0.607715 -0.905371,0 -1.51722,-0.620117 -0.61185,-0.61185 -0.61185,-1.537892 z m 0.950847,0.01654 q 0,0.603581 0.322461,0.954981 0.330729,0.355534 0.872299,0.355534 0.545703,0 0.872298,-0.3514 0.326595,-0.3514 0.326595,-0.938445 0,-0.587044 -0.326595,-0.938444 -0.330729,-0.355534 -0.872298,-0.355534 -0.533301,0 -0.864031,0.355534 -0.330729,0.355534 -0.330729,0.917774 z m 4.328419,-2.000912 h 0.930176 v 0.359668 q 0.256315,-0.268718 0.454753,-0.367937 0.202571,-0.103352 0.479557,-0.103352 0.367936,0 0.768946,0.239778 l -0.425814,0.851628 q -0.264584,-0.190169 -0.516765,-0.190169 -0.760677,0 -0.760677,1.149284 v 2.087729 h -0.930176 z m 4.225067,-2.955893 v 4.258139 l 1.310515,-1.302246 h 1.248503 l -1.748731,1.690853 1.876889,2.335776 h -1.207162 l -1.331186,-1.699122 -0.148828,0.148828 v 1.550294 h -0.930176 v -6.982522 z m 5.626531,3.642156 -0.768946,0.409277 q -0.181901,-0.37207 -0.450619,-0.37207 -0.128157,0 -0.219108,0.08682 -0.09095,0.08268 -0.09095,0.214974 0,0.231511 0.537435,0.458887 0.740007,0.318327 0.996322,0.587045 0.256315,0.268717 0.256315,0.72347 0,0.582911 -0.429948,0.975652 -0.417546,0.37207 -1.008724,0.37207 -1.012859,0 -1.434539,-0.988054 L 77.255731,35.138 q 0.165364,0.289388 0.252181,0.367936 0.169498,0.157097 0.405143,0.157097 0.471289,0 0.471289,-0.429948 0,-0.248047 -0.363802,-0.463021 -0.14056,-0.07028 -0.28112,-0.136426 -0.14056,-0.06615 -0.285254,-0.136426 -0.405143,-0.198438 -0.570508,-0.396875 -0.21084,-0.252181 -0.21084,-0.649056 0,-0.525033 0.359668,-0.868165 0.367937,-0.343131 0.892969,-0.343131 0.77308,0 1.149285,0.797884 z"
       id="text2"
       style="font-size:8.46667px;font-family:Futura;-inkscape-font-specification:Futura;text-align:center;letter-spacing:0px;word-spacing:0px;text-anchor:middle;fill:#ffaaaa;fill-opacity:0.866667;stroke-linejoin:round;stroke-miterlimit:3.9"
       aria-label="Student works" />
    <path
       style="fill:none;fill-opacity:1;stroke:#aaeeff;stroke-width:1;stroke-linejoin:round;stroke-miterlimit:3.9;stroke-dasharray:none"
       d="m 109.73067,41.193002 81.34107,0"
       id="path3"
       sodipodi:nodetypes="cc" />
    <path
       d="m 126.28484,33.657986 1.97611,2.720249 h -1.17823 l -1.82314,-2.612762 h -0.17363 v 2.612762 h -0.96325 v -6.383076 h 1.12861 q 1.26504,0 1.82728,0.475424 0.62012,0.529167 0.62012,1.397331 0,0.677995 -0.38861,1.165821 -0.38861,0.487826 -1.02526,0.624251 z m -1.19889,-0.731738 h 0.30592 q 1.36839,0 1.36839,-1.045932 0,-0.979785 -1.33118,-0.979785 h -0.34313 z m 7.7432,-1.980242 -0.78135,0.463021 q -0.21911,-0.380339 -0.41755,-0.496094 -0.2067,-0.132292 -0.5333,-0.132292 -0.40101,0 -0.66559,0.227377 -0.26458,0.223242 -0.26458,0.56224 0,0.467155 0.69453,0.752409 l 0.63665,0.260449 q 0.77722,0.314193 1.13688,0.768946 0.35967,0.450618 0.35967,1.107943 0,0.880567 -0.58704,1.455209 -0.59118,0.578776 -1.46761,0.578776 -0.83096,0 -1.37253,-0.49196 -0.5333,-0.49196 -0.66559,-1.384929 l 0.97565,-0.214974 q 0.0661,0.56224 0.23151,0.777214 0.29765,0.413412 0.86816,0.413412 0.45062,0 0.74828,-0.301791 0.29765,-0.30179 0.29765,-0.764811 0,-0.186035 -0.0537,-0.338998 -0.0496,-0.157096 -0.16123,-0.285254 -0.10749,-0.132291 -0.28112,-0.243913 -0.17363,-0.115755 -0.41341,-0.219108 l -0.61598,-0.256315 q -1.31052,-0.553972 -1.31052,-1.620574 0,-0.719336 0.54984,-1.203027 0.54984,-0.487826 1.36839,-0.487826 1.10381,0 1.72393,1.07487 z m 4.84932,-0.04547 h -2.55902 v 1.533757 h 2.4846 v 0.905371 h -2.4846 v 2.133204 h 2.55902 v 0.905372 h -3.52227 v -6.383076 h 3.52227 z m 6.83369,1.624708 v 1.2361 q -0.31833,-0.388607 -0.57051,-0.533301 -0.24805,-0.148828 -0.58291,-0.148828 -0.52503,0 -0.8723,0.367936 -0.34726,0.367937 -0.34726,0.921908 0,0.566374 0.33486,0.930177 0.339,0.363802 0.86403,0.363802 0.33486,0 0.59118,-0.144694 0.24805,-0.14056 0.58291,-0.545704 v 1.227833 q -0.56637,0.293522 -1.13275,0.293522 -0.93431,0 -1.56269,-0.603581 -0.62839,-0.607715 -0.62839,-1.508952 0,-0.901238 0.63665,-1.521355 0.63666,-0.620117 1.5627,-0.620117 0.59531,0 1.12448,0.285254 z m 1.83141,-3.129526 v 6.982522 h -0.93017 v -6.982522 z m 4.84519,5.188315 h -2.88562 q 0.0372,0.496094 0.32247,0.789617 0.28525,0.289388 0.73173,0.289388 0.34727,0 0.57465,-0.165365 0.22324,-0.165365 0.50849,-0.611849 l 0.78549,0.438216 q -0.18191,0.310059 -0.38448,0.533301 -0.20257,0.219108 -0.43408,0.363802 -0.23151,0.14056 -0.50023,0.206706 -0.26872,0.06615 -0.58291,0.06615 -0.90124,0 -1.44694,-0.578776 -0.5457,-0.582911 -0.5457,-1.54616 0,-0.95498 0.52916,-1.546159 0.53331,-0.58291 1.41387,-0.58291 0.88884,0 1.4056,0.566373 0.51263,0.56224 0.51263,1.558562 z m -0.95498,-0.760677 q -0.19431,-0.744141 -0.93845,-0.744141 -0.1695,0 -0.31832,0.05374 -0.14883,0.04961 -0.27286,0.148828 -0.11989,0.09508 -0.2067,0.23151 -0.0868,0.136426 -0.13229,0.310059 z m 4.94026,-1.471745 h 0.93431 v 4.026629 h -0.93431 v -0.42168 q -0.57464,0.537435 -1.2361,0.537435 -0.83509,0 -1.38079,-0.603581 -0.54157,-0.615983 -0.54157,-1.537891 0,-0.905372 0.54157,-1.508953 0.54157,-0.60358 1.35599,-0.60358 0.7028,0 1.2609,0.578776 z m -2.20761,2.000912 q 0,0.578776 0.31006,0.942578 0.31832,0.367937 0.80201,0.367937 0.51677,0 0.8351,-0.355534 0.31832,-0.367937 0.31832,-0.934311 0,-0.566373 -0.31832,-0.93431 -0.31833,-0.359668 -0.82683,-0.359668 -0.47956,0 -0.80202,0.363802 -0.31832,0.367937 -0.31832,0.909506 z m 4.31601,-2.000912 h 0.93431 v 0.37207 q 0.48783,-0.483691 1.09968,-0.483691 0.7028,0 1.09554,0.44235 0.339,0.376205 0.339,1.227832 v 2.468068 h -0.93431 v -2.248959 q 0,-0.595313 -0.16537,-0.822689 -0.16123,-0.231511 -0.58704,-0.231511 -0.46302,0 -0.65733,0.305925 -0.19017,0.30179 -0.19017,1.054199 v 1.943035 h -0.93431 z m 6.98253,0.686263 -0.76895,0.409277 q -0.1819,-0.37207 -0.45062,-0.37207 -0.12816,0 -0.21911,0.08682 -0.0909,0.08268 -0.0909,0.214974 0,0.231511 0.53744,0.458887 0.74,0.318327 0.99632,0.587045 0.25632,0.268717 0.25632,0.72347 0,0.582911 -0.42995,0.975652 -0.41755,0.37207 -1.00873,0.37207 -1.01286,0 -1.43454,-0.988054 L 162.44595,35.138 q 0.16537,0.289388 0.25219,0.367936 0.16949,0.157097 0.40514,0.157097 0.47129,0 0.47129,-0.429948 0,-0.248047 -0.3638,-0.463021 -0.14056,-0.07028 -0.28112,-0.136426 -0.14056,-0.06615 -0.28526,-0.136426 -0.40514,-0.198438 -0.57051,-0.396875 -0.21084,-0.252181 -0.21084,-0.649056 0,-0.525033 0.35967,-0.868165 0.36794,-0.343131 0.89297,-0.343131 0.77308,0 1.14929,0.797884 z m 4.63848,-0.686263 v 2.310971 q 0,1.000456 0.78961,1.000456 0.78962,0 0.78962,-1.000456 v -2.310971 h 0.93017 v 2.331641 q 0,0.483692 -0.11988,0.835092 -0.11576,0.314193 -0.40101,0.566374 -0.47129,0.409277 -1.1989,0.409277 -0.72347,0 -1.19476,-0.409277 -0.28939,-0.252181 -0.40927,-0.566374 -0.11576,-0.28112 -0.11576,-0.835092 v -2.331641 z m 4.61367,6.21771 h -0.93018 v -6.21771 h 0.93018 v 0.438216 q 0.54984,-0.549837 1.2485,-0.549837 0.83096,0 1.3684,0.611849 0.5457,0.607715 0.5457,1.533757 0,0.905371 -0.54157,1.508952 -0.53743,0.599447 -1.35599,0.599447 -0.70693,0 -1.26504,-0.566374 z m 2.21175,-4.179591 q 0,-0.578776 -0.31419,-0.942579 -0.31833,-0.367936 -0.80202,-0.367936 -0.51263,0 -0.83096,0.355534 -0.31832,0.355534 -0.31832,0.93431 0,0.566374 0.31832,0.934311 0.3142,0.359668 0.82683,0.359668 0.48369,0 0.79788,-0.363802 0.32246,-0.363803 0.32246,-0.909506 z"
       id="text3"
       style="font-size:8.46667px;font-family:Futura;-inkscape-font-specification:Futura;text-align:center;letter-spacing:0px;word-spacing:0px;text-anchor:middle;fill:#aaeeff;stroke-linejoin:round;stroke-miterlimit:3.9"
       aria-label="RSE cleans up" />
    <g
       id="path5">
      <path
         style="color:#000000;fill:#808080;stroke-linejoin:round;stroke-miterlimit:3.9;-inkscape-stroke:none"
         d="M 14.735785,103.62008 H 201.46582"
         id="path42" />
      <path
         style="color:#000000;fill:#ececec;stroke-linejoin:round;stroke-miterlimit:3.9;-inkscape-stroke:none"
         d="m 14.736328,103.11914 v 1 H 201.46484 v -1 z"
         id="path43" />
      <g
         id="g39">
        <g
           id="path39">
          <path
             style="color:#000000;fill:#ececec;fill-rule:evenodd;-inkscape-stroke:none"
             d="m 204.46582,103.62008 c -1.5,0.5 -3.5,1.5 -4.5,2.5 0,0 0,-2 1,-2.5 -1,-0.5 -1,-2.5 -1,-2.5 1,1 3,2 4.5,2.5 z"
             id="path40" />
          <path
             style="color:#000000;fill:#ececec;fill-rule:evenodd;-inkscape-stroke:none"
             d="m 199.63281,100.31445 v 0.80469 c 0,0 -0.001,0.53339 0.13281,1.13672 0.10674,0.48031 0.35218,0.99022 0.75586,1.36523 -0.40296,0.37502 -0.64921,0.88338 -0.75586,1.36329 -0.13407,0.60333 -0.13281,1.13476 -0.13281,1.13476 v 0.80664 l 0.56836,-0.57031 c 0.92143,-0.92143 2.91131,-1.93398 4.36914,-2.41992 l 0.94922,-0.31641 -0.94922,-0.31445 c -1.45783,-0.48595 -3.44771,-1.49849 -4.36914,-2.41992 z m 0.74805,1.49805 c 0.93288,0.73139 2.09472,1.35634 3.25195,1.80859 -1.15705,0.45225 -2.31926,1.07541 -3.25195,1.80664 0.0172,-0.13585 3.3e-4,-0.14017 0.0352,-0.29687 0.11592,-0.52167 0.35822,-1.0424 0.69921,-1.21289 l 0.59571,-0.29883 -0.59571,-0.29687 c -0.34099,-0.1705 -0.58329,-0.69123 -0.69921,-1.21289 -0.0348,-0.1564 -0.018,-0.16123 -0.0352,-0.29688 z"
             id="path41" />
        </g>
      </g>
    </g>
    <path
       style="font-size:11.2889px;font-family:Futura;-inkscape-font-specification:Futura;text-align:center;letter-spacing:0px;word-spacing:0px;text-anchor:middle;fill:#ececec;stroke-width:2;stroke-linejoin:round;stroke-miterlimit:3.9"
       d="m 196.44458,92.948265 v 4.211289 h -1.24023 v -4.211289 h -0.52917 v -1.157554 h 0.52917 v -1.96784 h 1.24023 v 1.96784 h 0.96463 v 1.157554 z m 3.04823,-1.157554 v 5.368843 h -1.24024 v -5.368843 z m -1.42765,-2.232424 q 0,-0.325217 0.23702,-0.56224 0.23702,-0.237023 0.56775,-0.237023 0.33624,0 0.57327,0.237023 0.23702,0.231511 0.23702,0.567752 0,0.336242 -0.23702,0.573265 -0.23151,0.237023 -0.56776,0.237023 -0.33624,0 -0.57326,-0.237023 -0.23702,-0.237023 -0.23702,-0.578777 z m 2.99861,2.232424 h 1.24024 v 0.496095 q 0.35829,-0.374827 0.61185,-0.507119 0.27009,-0.137804 0.67799,-0.137804 0.90951,0 1.43867,0.793751 0.58429,-0.793751 1.58199,-0.793751 1.8135,0 1.8135,2.199351 v 3.31832 h -1.24574 v -2.982078 q 0,-0.771702 -0.18742,-1.091408 -0.19292,-0.325217 -0.6339,-0.325217 -0.51263,0 -0.74965,0.385851 -0.23151,0.385851 -0.23151,1.240236 v 2.772616 h -1.24575 v -2.965542 q 0,-1.433161 -0.82682,-1.433161 -0.52366,0 -0.76619,0.391363 -0.23702,0.391364 -0.23702,1.234724 v 2.772616 h -1.24024 z m 13.81898,2.976566 h -3.84748 q 0.0496,0.661459 0.42994,1.052822 0.38034,0.385851 0.97566,0.385851 0.46302,0 0.76619,-0.220486 0.29765,-0.220487 0.67799,-0.8158 l 1.04731,0.584289 q -0.24253,0.413412 -0.51263,0.711069 -0.2701,0.292144 -0.57878,0.48507 -0.30868,0.187413 -0.66697,0.275607 -0.35829,0.08819 -0.77721,0.08819 -1.20165,0 -1.92926,-0.771702 -0.7276,-0.777215 -0.7276,-2.061547 0,-1.273309 0.70555,-2.061548 0.71107,-0.777214 1.88516,-0.777214 1.18512,0 1.87414,0.755166 0.6835,0.749653 0.6835,2.078083 z m -1.27331,-1.014237 q -0.25907,-0.992189 -1.25126,-0.992189 -0.226,0 -0.42443,0.07166 -0.19844,0.06615 -0.36381,0.198438 -0.15985,0.12678 -0.2756,0.308681 -0.11576,0.181901 -0.17639,0.413412 z"
       id="text5"
       aria-label="time" />
    <path
       style="fill:none;fill-opacity:1;stroke:#ffaaaa;stroke-width:1;stroke-linejoin:round;stroke-miterlimit:3.9;stroke-dasharray:none"
       d="M 15.781735,98.271242 H 72.768229"
       id="path6"
       sodipodi:nodetypes="cc" />
    <path
       style="fill:none;fill-opacity:1;stroke:#aaeeff;stroke-width:1;stroke-linejoin:round;stroke-miterlimit:3.9;stroke-dasharray:none"
       d="M 17.808156,108.89045 H 90.336761"
       id="path7"
       sodipodi:nodetypes="cc" />
    <path
       d="m 20.888744,87.692397 -0.781348,0.463021 q -0.219108,-0.380338 -0.417546,-0.496093 -0.206705,-0.132292 -0.533301,-0.132292 -0.401009,0 -0.665592,0.227376 -0.264584,0.223242 -0.264584,0.56224 0,0.467155 0.694532,0.752409 l 0.636654,0.260449 q 0.777213,0.314193 1.136882,0.768946 0.359668,0.450619 0.359668,1.107943 0,0.880567 -0.587045,1.455209 -0.591178,0.578776 -1.467611,0.578776 -0.830957,0 -1.372527,-0.491959 -0.533301,-0.49196 -0.665592,-1.384929 l 0.975651,-0.214974 q 0.06615,0.562239 0.231511,0.777213 0.297656,0.413412 0.868164,0.413412 0.450619,0 0.748275,-0.30179 0.297656,-0.301791 0.297656,-0.764812 0,-0.186035 -0.05374,-0.338997 -0.04961,-0.157097 -0.161231,-0.285254 -0.107487,-0.132292 -0.28112,-0.243913 -0.173632,-0.115756 -0.413411,-0.219108 l -0.615984,-0.256316 q -1.310514,-0.553971 -1.310514,-1.620573 0,-0.719336 0.549837,-1.203028 0.549838,-0.487826 1.368393,-0.487826 1.103809,0 1.723926,1.07487 z m 2.253094,2.273764 v 3.158465 h -0.930176 v -3.158465 h -0.396876 v -0.868164 h 0.396876 v -1.47588 h 0.930176 v 1.47588 h 0.72347 v 0.868164 z m 2.286166,-0.868164 v 2.310971 q 0,1.000456 0.789616,1.000456 0.789616,0 0.789616,-1.000456 v -2.310971 h 0.930176 v 2.331642 q 0,0.483691 -0.119889,0.835091 -0.115755,0.314193 -0.401009,0.566374 -0.47129,0.409277 -1.198894,0.409277 -0.72347,0 -1.19476,-0.409277 -0.289388,-0.252181 -0.409277,-0.566374 -0.115755,-0.28112 -0.115755,-0.835091 v -2.331642 z m 6.651792,-2.955893 h 0.934311 v 6.982522 h -0.934311 v -0.42168 q -0.549837,0.537435 -1.244369,0.537435 -0.826823,0 -1.372526,-0.603581 -0.541569,-0.615983 -0.541569,-1.537891 0,-0.901237 0.541569,-1.504818 0.537435,-0.607715 1.351856,-0.607715 0.706934,0 1.265039,0.578776 z m -2.207618,4.956805 q 0,0.578776 0.310059,0.942579 0.318327,0.367936 0.802019,0.367936 0.516764,0 0.835091,-0.355534 0.318327,-0.367936 0.318327,-0.93431 0,-0.566374 -0.318327,-0.93431 -0.318327,-0.359669 -0.826823,-0.359669 -0.479558,0 -0.802019,0.363803 -0.318327,0.367936 -0.318327,0.909505 z m 7.98298,0.231511 h -2.885613 q 0.03721,0.496094 0.322461,0.789616 0.285254,0.289388 0.731739,0.289388 0.347266,0 0.574642,-0.165365 0.223242,-0.165364 0.508496,-0.611849 l 0.785482,0.438217 q -0.181901,0.310058 -0.384472,0.533301 -0.202572,0.219108 -0.434083,0.363802 -0.23151,0.14056 -0.500228,0.206706 -0.268717,0.06615 -0.58291,0.06615 -0.901237,0 -1.446941,-0.578776 -0.545703,-0.58291 -0.545703,-1.546159 0,-0.954981 0.529167,-1.54616 0.533301,-0.58291 1.413868,-0.58291 0.888835,0 1.405599,0.566374 0.51263,0.56224 0.51263,1.558562 z m -0.95498,-0.760678 q -0.194304,-0.744141 -0.938445,-0.744141 -0.169499,0 -0.318327,0.05374 -0.148828,0.04961 -0.272851,0.148828 -0.11989,0.09509 -0.206706,0.231511 -0.08682,0.136425 -0.132292,0.310058 z m 1.971972,-1.471745 h 0.93431 v 0.37207 q 0.487826,-0.483691 1.099675,-0.483691 0.7028,0 1.095541,0.44235 0.338997,0.376205 0.338997,1.227833 v 2.468067 h -0.93431 v -2.248959 q 0,-0.595313 -0.165365,-0.822689 -0.16123,-0.231511 -0.587044,-0.231511 -0.463021,0 -0.657325,0.305925 -0.190169,0.30179 -0.190169,1.0542 v 1.943034 h -0.93431 z m 5.601727,0.868164 v 3.158465 h -0.930176 v -3.158465 h -0.396875 v -0.868164 h 0.396875 v -1.47588 h 0.930176 v 1.47588 h 0.72347 v 0.868164 z m 4.473115,-0.868164 1.0542,2.298569 1.136882,-2.666505 1.14515,2.666505 1.041797,-2.298569 h 1.041798 l -2.1084,4.32842 -1.120345,-2.592091 -1.132748,2.592091 -2.104265,-4.32842 z m 5.705081,1.984376 q 0,-0.872299 0.624252,-1.484148 0.624251,-0.611849 1.521354,-0.611849 0.901238,0 1.529623,0.615983 0.620118,0.615983 0.620118,1.513087 0,0.905371 -0.624252,1.51722 -0.628385,0.607715 -1.542025,0.607715 -0.905372,0 -1.517221,-0.620117 -0.611849,-0.611849 -0.611849,-1.537891 z m 0.950847,0.01654 q 0,0.603581 0.322461,0.954981 0.330729,0.355534 0.872298,0.355534 0.545704,0 0.872299,-0.3514 0.326595,-0.3514 0.326595,-0.938444 0,-0.587045 -0.326595,-0.938445 -0.330729,-0.355534 -0.872299,-0.355534 -0.533301,0 -0.86403,0.355534 -0.330729,0.355534 -0.330729,0.917774 z m 4.328418,-2.000912 h 0.930177 v 0.359668 q 0.256315,-0.268717 0.454752,-0.367936 0.202572,-0.103353 0.479558,-0.103353 0.367936,0 0.768945,0.239779 l -0.425813,0.851627 q -0.264584,-0.190169 -0.516765,-0.190169 -0.760677,0 -0.760677,1.149284 v 2.087729 h -0.930177 z m 4.225068,-2.955893 v 4.25814 l 1.310515,-1.302247 h 1.248503 l -1.748731,1.690853 1.876889,2.335776 H 65.63642 l -1.331186,-1.699122 -0.148828,0.148829 v 1.550293 H 63.22623 v -6.982522 z m 5.62653,3.642156 -0.768945,0.409278 q -0.181901,-0.372071 -0.450619,-0.372071 -0.128157,0 -0.219108,0.08682 -0.09095,0.08268 -0.09095,0.214974 0,0.23151 0.537436,0.458887 0.740006,0.318327 0.996322,0.587044 0.256315,0.268718 0.256315,0.723471 0,0.58291 -0.429948,0.975651 -0.417546,0.37207 -1.008725,0.37207 -1.012858,0 -1.434538,-0.988053 l 0.79375,-0.367937 q 0.165365,0.289388 0.252181,0.367937 0.169499,0.157096 0.405144,0.157096 0.471289,0 0.471289,-0.429948 0,-0.248047 -0.363802,-0.463021 -0.14056,-0.07028 -0.28112,-0.136426 -0.14056,-0.06615 -0.285254,-0.136426 -0.405143,-0.198437 -0.570508,-0.396875 -0.21084,-0.252181 -0.21084,-0.649056 0,-0.525033 0.359668,-0.868165 0.367936,-0.343131 0.892969,-0.343131 0.77308,0 1.149284,0.797884 z"
       id="text7"
       style="font-size:8.46667px;font-family:Futura;-inkscape-font-specification:Futura;text-align:center;letter-spacing:0px;word-spacing:0px;text-anchor:middle;fill:#ffaaaa;fill-opacity:0.866667;stroke-linejoin:round;stroke-miterlimit:3.9"
       aria-label="Student works" />
    <path
       d="m 26.090361,118.61164 1.976107,2.72025 H 26.888245 L 25.0651,118.71912 h -0.173633 v 2.61277 h -0.963249 v -6.38308 h 1.128614 q 1.265039,0 1.827279,0.47542 0.620117,0.52917 0.620117,1.39734 0,0.67799 -0.388607,1.16582 -0.388607,0.48782 -1.02526,0.62425 z m -1.198894,-0.73174 h 0.305924 q 1.368393,0 1.368393,-1.04593 0,-0.97979 -1.331185,-0.97979 h -0.343132 z m 7.7432,-1.98024 -0.781348,0.46302 q -0.219108,-0.38034 -0.417546,-0.4961 -0.206706,-0.13229 -0.533301,-0.13229 -0.401009,0 -0.665593,0.22738 -0.264583,0.22324 -0.264583,0.56224 0,0.46715 0.694531,0.75241 l 0.636654,0.26045 q 0.777214,0.31419 1.136882,0.76894 0.359668,0.45062 0.359668,1.10795 0,0.88056 -0.587044,1.45521 -0.591179,0.57877 -1.467611,0.57877 -0.830958,0 -1.372527,-0.49196 -0.533301,-0.49196 -0.665593,-1.38493 l 0.975652,-0.21497 q 0.06615,0.56224 0.23151,0.77721 0.297657,0.41341 0.868165,0.41341 0.450618,0 0.748275,-0.30179 0.297656,-0.30179 0.297656,-0.76481 0,-0.18603 -0.05374,-0.339 -0.04961,-0.15709 -0.16123,-0.28525 -0.107487,-0.13229 -0.28112,-0.24391 -0.173633,-0.11576 -0.413412,-0.21911 l -0.615983,-0.25632 q -1.310515,-0.55397 -1.310515,-1.62057 0,-0.71934 0.549838,-1.20303 0.549837,-0.48782 1.368392,-0.48782 1.103809,0 1.723927,1.07487 z m 4.849318,-0.0455 h -2.559017 v 1.53376 h 2.484603 v 0.90537 h -2.484603 v 2.1332 h 2.559017 v 0.90538 h -3.522267 v -6.38308 h 3.522267 z m 4.663284,2.31924 v 3.15847 h -0.93431 v -3.15847 h -0.33073 v -0.86816 h 0.33073 v -1.55443 q 0,-0.76068 0.264583,-1.07487 0.363802,-0.43822 1.058334,-0.43822 0.248047,0 0.624251,0.1447 v 0.95084 l -0.09508,-0.0496 q -0.301791,-0.15296 -0.496094,-0.15296 -0.248047,0 -0.334864,0.17777 -0.08682,0.17363 -0.08682,0.66973 v 1.32705 h 1.012858 v 0.86816 z m 5.345413,1.36426 h -2.885614 q 0.03721,0.49609 0.322462,0.78962 0.285254,0.28938 0.731738,0.28938 0.347266,0 0.574642,-0.16536 0.223243,-0.16537 0.508497,-0.61185 l 0.785482,0.43822 q -0.181901,0.31006 -0.384473,0.5333 -0.202572,0.21911 -0.434082,0.3638 -0.231511,0.14056 -0.500228,0.20671 -0.268718,0.0661 -0.582911,0.0661 -0.901237,0 -1.446941,-0.57877 -0.545703,-0.58292 -0.545703,-1.54616 0,-0.95499 0.529167,-1.54616 0.533301,-0.58291 1.413868,-0.58291 0.888835,0 1.405599,0.56637 0.512631,0.56224 0.512631,1.55856 z M 46.537701,118.777 q -0.194304,-0.74414 -0.938445,-0.74414 -0.169498,0 -0.318327,0.0537 -0.148828,0.0496 -0.272851,0.14882 -0.11989,0.0951 -0.206706,0.23151 -0.08682,0.13643 -0.132292,0.31006 z m 5.638933,0.76068 h -2.885613 q 0.03721,0.49609 0.322461,0.78962 0.285254,0.28938 0.731738,0.28938 0.347266,0 0.574643,-0.16536 0.223242,-0.16537 0.508496,-0.61185 l 0.785482,0.43822 q -0.181901,0.31006 -0.384473,0.5333 -0.202572,0.21911 -0.434082,0.3638 -0.231511,0.14056 -0.500228,0.20671 -0.268718,0.0661 -0.58291,0.0661 -0.901238,0 -1.446941,-0.57877 -0.545704,-0.58292 -0.545704,-1.54616 0,-0.95499 0.529167,-1.54616 0.533301,-0.58291 1.413868,-0.58291 0.888835,0 1.4056,0.56637 0.51263,0.56224 0.51263,1.55856 z M 51.221653,118.777 q -0.194303,-0.74414 -0.938444,-0.74414 -0.169499,0 -0.318327,0.0537 -0.148828,0.0496 -0.272852,0.14882 -0.119889,0.0951 -0.206706,0.23151 -0.08682,0.13643 -0.132291,0.31006 z m 4.94027,-4.42764 h 0.93431 v 6.98253 h -0.93431 v -0.42168 q -0.549838,0.53743 -1.244369,0.53743 -0.826824,0 -1.372527,-0.60358 -0.541569,-0.61598 -0.541569,-1.53789 0,-0.90124 0.541569,-1.50482 0.537435,-0.60771 1.351856,-0.60771 0.706934,0 1.26504,0.57877 z m -2.207619,4.95681 q 0,0.57878 0.310059,0.94258 0.318327,0.36793 0.802019,0.36793 0.516764,0 0.835091,-0.35553 0.318327,-0.36794 0.318327,-0.93431 0,-0.56637 -0.318327,-0.93431 -0.318327,-0.35967 -0.826823,-0.35967 -0.479558,0 -0.802019,0.3638 -0.318327,0.36794 -0.318327,0.90951 z m 6.655927,-1.31465 -0.768945,0.40928 q -0.181901,-0.37207 -0.450619,-0.37207 -0.128158,0 -0.219108,0.0868 -0.09095,0.0827 -0.09095,0.21498 0,0.23151 0.537435,0.45888 0.740007,0.31833 0.996322,0.58705 0.256316,0.26872 0.256316,0.72347 0,0.58291 -0.429948,0.97565 -0.417546,0.37207 -1.008725,0.37207 -1.012858,0 -1.434538,-0.98805 l 0.79375,-0.36794 q 0.165365,0.28939 0.252181,0.36794 0.169499,0.15709 0.405144,0.15709 0.471289,0 0.471289,-0.42994 0,-0.24805 -0.363802,-0.46302 -0.14056,-0.0703 -0.28112,-0.13643 -0.14056,-0.0661 -0.285254,-0.13643 -0.405144,-0.19843 -0.570508,-0.39687 -0.21084,-0.25218 -0.21084,-0.64906 0,-0.52503 0.359668,-0.86816 0.367936,-0.34313 0.892969,-0.34313 0.77308,0 1.149284,0.79788 z m 4.638481,-3.64216 v 3.42305 q 0.558105,-0.57877 1.265039,-0.57877 0.814421,0 1.35599,0.60771 0.54157,0.60358 0.54157,1.50482 0,0.93018 -0.545704,1.53789 -0.541569,0.60358 -1.368392,0.60358 -0.698666,0 -1.248503,-0.53743 v 0.42168 h -0.930176 v -6.98253 z m 2.211752,4.99815 q 0,-0.57878 -0.314193,-0.94258 -0.318327,-0.37207 -0.797884,-0.37207 -0.512631,0 -0.835092,0.35967 -0.318327,0.35553 -0.318327,0.92604 0,0.58705 0.314193,0.93845 0.314193,0.35966 0.826823,0.35966 0.483692,0 0.802019,-0.35966 0.322461,-0.36381 0.322461,-0.90951 z m 4.903061,-2.04225 h 0.934311 v 4.02663 h -0.934311 v -0.42168 q -0.574642,0.53743 -1.2361,0.53743 -0.835092,0 -1.380795,-0.60358 -0.541569,-0.61598 -0.541569,-1.53789 0,-0.90537 0.541569,-1.50895 0.541569,-0.60358 1.35599,-0.60358 0.7028,0 1.260905,0.57877 z m -2.207618,2.00091 q 0,0.57878 0.310059,0.94258 0.318327,0.36793 0.802019,0.36793 0.516764,0 0.835091,-0.35553 0.318327,-0.36794 0.318327,-0.93431 0,-0.56637 -0.318327,-0.93431 -0.318327,-0.35967 -0.826823,-0.35967 -0.479558,0 -0.802019,0.3638 -0.318327,0.36794 -0.318327,0.90951 z m 7.449678,-1.82728 v 1.2361 q -0.318327,-0.38861 -0.570508,-0.5333 -0.248047,-0.14883 -0.582911,-0.14883 -0.525033,0 -0.872298,0.36794 -0.347266,0.36793 -0.347266,0.92191 0,0.56637 0.334863,0.93017 0.338998,0.3638 0.864031,0.3638 0.334863,0 0.591178,-0.14469 0.248047,-0.14056 0.582911,-0.5457 v 1.22783 q -0.566374,0.29352 -1.132748,0.29352 -0.934311,0 -1.562696,-0.60358 -0.628386,-0.60771 -0.628386,-1.50895 0,-0.90124 0.636654,-1.52136 0.636654,-0.62011 1.562696,-0.62011 0.595313,0 1.12448,0.28525 z m 2.050521,-3.12953 v 4.25814 l 1.310515,-1.30224 h 1.248503 l -1.748731,1.69085 1.876889,2.33578 H 81.13612 l -1.331186,-1.69913 -0.148828,0.14883 v 1.5503 H 78.72593 v -6.98253 z"
       id="text8"
       style="font-size:8.46667px;font-family:Futura;-inkscape-font-specification:Futura;text-align:center;letter-spacing:0px;word-spacing:0px;text-anchor:middle;fill:#aaeeff;stroke-linejoin:round;stroke-miterlimit:3.9"
       aria-label="RSE feeds back" />
    <path
       style="fill:#aaeeff;fill-opacity:1;stroke:#ffffff;stroke-width:1;stroke-linejoin:round;stroke-miterlimit:3.9;stroke-dasharray:1, 1;stroke-dashoffset:0"
       d="M 94.133862,44.698782 V 109.52682"
       id="path8" />
    <g
       id="path9">
      <path
         style="color:#000000;fill:#aaeeff;stroke-linejoin:round;stroke-miterlimit:3.9;-inkscape-stroke:none"
         d="M 97.982099,72.228497 H 189.58634"
         id="path32" />
      <path
         style="color:#000000;fill:#ffffff;stroke-linejoin:round;stroke-miterlimit:3.9;-inkscape-stroke:none"
         d="m 97.982422,71.728516 v 1 h 91.603518 v -1 z"
         id="path33" />
      <g
         id="g30">
        <path
           style="color:#000000;fill:#ffffff;fill-rule:evenodd;-inkscape-stroke:none"
           d="m 190.58634,72.228497 -3,3 h -2 l 3,-3 -3,-3 h 2 z"
           id="path31" />
        <path
           style="color:#000000;fill:#ffffff;fill-rule:evenodd;-inkscape-stroke:none"
           d="m 96.982099,72.228497 3,-3 h 2.000001 l -3.000001,3 3.000001,3 h -2.000001 z"
           id="path30" />
      </g>
    </g>
    <path
       style="font-size:11.2889px;font-family:Futura;-inkscape-font-specification:Futura;text-align:center;letter-spacing:0px;word-spacing:0px;text-anchor:middle;fill:#ffffff;stroke-width:2;stroke-linejoin:round;stroke-miterlimit:3.9"
       d="m 115.69719,62.626007 v 4.211289 h -1.24023 v -4.211289 h -0.52917 v -1.157554 h 0.52917 v -1.96784 h 1.24023 v 1.96784 h 0.96463 v 1.157554 z m 3.04822,-1.157554 v 5.368843 h -1.24023 v -5.368843 z m -1.42764,-2.232424 q 0,-0.325217 0.23702,-0.56224 0.23702,-0.237023 0.56775,-0.237023 0.33624,0 0.57326,0.237023 0.23703,0.231511 0.23703,0.567752 0,0.336242 -0.23703,0.573265 -0.23151,0.237023 -0.56775,0.237023 -0.33624,0 -0.57326,-0.237023 -0.23702,-0.237023 -0.23702,-0.578777 z m 2.99861,2.232424 h 1.24023 v 0.496095 q 0.3583,-0.374827 0.61185,-0.507119 0.2701,-0.137804 0.678,-0.137804 0.90951,0 1.43867,0.793751 0.58429,-0.793751 1.58199,-0.793751 1.8135,0 1.8135,2.199351 v 3.31832 h -1.24574 v -2.982078 q 0,-0.771702 -0.18742,-1.091408 -0.19292,-0.325217 -0.6339,-0.325217 -0.51263,0 -0.74965,0.385851 -0.23151,0.385851 -0.23151,1.240236 v 2.772616 h -1.24575 v -2.965542 q 0,-1.433161 -0.82682,-1.433161 -0.52366,0 -0.76619,0.391363 -0.23703,0.391364 -0.23703,1.234724 v 2.772616 h -1.24023 z m 13.81898,2.976566 h -3.84749 q 0.0496,0.661459 0.42995,1.052822 0.38034,0.385851 0.97565,0.385851 0.46303,0 0.76619,-0.220486 0.29766,-0.220487 0.678,-0.8158 l 1.04731,0.584289 q -0.24253,0.413412 -0.51263,0.711069 -0.2701,0.292144 -0.57878,0.48507 -0.30868,0.187413 -0.66697,0.275607 -0.35829,0.08819 -0.77721,0.08819 -1.20165,0 -1.92926,-0.771702 -0.7276,-0.777215 -0.7276,-2.061547 0,-1.273309 0.70555,-2.061548 0.71107,-0.777214 1.88516,-0.777214 1.18512,0 1.87414,0.755166 0.6835,0.749653 0.6835,2.078083 z m -1.27331,-1.014237 q -0.25907,-0.992189 -1.25126,-0.992189 -0.226,0 -0.42443,0.07166 -0.19844,0.06615 -0.36381,0.198438 -0.15985,0.12678 -0.2756,0.308681 -0.11576,0.181901 -0.17639,0.413412 z m 9.23287,-1.04731 -1.02526,0.545703 q -0.24254,-0.496094 -0.60083,-0.496094 -0.17088,0 -0.29214,0.115755 -0.12127,0.110243 -0.12127,0.286633 0,0.30868 0.71658,0.611849 0.98668,0.424436 1.32843,0.782727 0.34175,0.35829 0.34175,0.964627 0,0.777215 -0.57326,1.30087 -0.55673,0.496094 -1.34497,0.496094 -1.35048,0 -1.91272,-1.317406 l 1.05834,-0.490582 q 0.22048,0.385851 0.33624,0.490582 0.226,0.209462 0.54019,0.209462 0.62839,0 0.62839,-0.573264 0,-0.33073 -0.48507,-0.617362 -0.18742,-0.09371 -0.37483,-0.181901 -0.18741,-0.08819 -0.38034,-0.181902 -0.54019,-0.264583 -0.76068,-0.529167 -0.28112,-0.336241 -0.28112,-0.865409 0,-0.700044 0.47956,-1.157553 0.49058,-0.457509 1.19063,-0.457509 1.03077,0 1.53238,1.063847 z m 5.41845,-0.915019 h 1.24575 v 5.368843 h -1.24575 v -0.562241 q -0.76619,0.716581 -1.64814,0.716581 -1.11345,0 -1.84106,-0.804775 -0.72209,-0.821312 -0.72209,-2.050523 0,-1.207163 0.72209,-2.011938 0.7221,-0.804775 1.80799,-0.804775 0.93707,0 1.68121,0.771702 z m -2.94349,2.667885 q 0,0.771702 0.41341,1.256772 0.42444,0.490582 1.06936,0.490582 0.68902,0 1.11345,-0.474045 0.42444,-0.490583 0.42444,-1.245748 0,-0.755166 -0.42444,-1.245748 -0.42443,-0.479558 -1.10243,-0.479558 -0.63941,0 -1.06936,0.48507 -0.42443,0.490582 -0.42443,1.212675 z m 6.52088,-2.667885 1.38907,3.015151 1.38355,-3.015151 h 1.39457 l -2.78915,5.738157 -2.7671,-5.738157 z m 6.24527,0 v 5.368843 h -1.24023 v -5.368843 z m -1.42764,-2.232424 q 0,-0.325217 0.23702,-0.56224 0.23702,-0.237023 0.56775,-0.237023 0.33624,0 0.57327,0.237023 0.23702,0.231511 0.23702,0.567752 0,0.336242 -0.23702,0.573265 -0.23152,0.237023 -0.56776,0.237023 -0.33624,0 -0.57326,-0.237023 -0.23702,-0.237023 -0.23702,-0.578777 z m 2.99861,2.232424 h 1.24575 v 0.496095 q 0.65043,-0.644923 1.46623,-0.644923 0.93707,0 1.46073,0.589801 0.45199,0.501606 0.45199,1.637111 v 3.290759 h -1.24574 v -2.998615 q 0,-0.79375 -0.22049,-1.096919 -0.21498,-0.308681 -0.78273,-0.308681 -0.61736,0 -0.87643,0.4079 -0.25356,0.402387 -0.25356,1.4056 v 2.590715 H 158.907 Z m 11.38261,5.242063 q 0,0.380339 -0.0276,0.666971 -0.022,0.292144 -0.0661,0.512631 -0.13229,0.606337 -0.51814,1.041798 -0.7276,0.837848 -2.00091,0.837848 -1.07487,0 -1.76941,-0.578777 -0.71658,-0.595313 -0.82682,-1.648135 h 1.24575 q 0.0717,0.396875 0.23702,0.611849 0.38585,0.501607 1.12448,0.501607 1.3615,0 1.3615,-1.670184 V 66.23647 q -0.73862,0.755166 -1.70325,0.755166 -1.09692,0 -1.79697,-0.793751 -0.70555,-0.804775 -0.70555,-2.011938 0,-1.174089 0.65594,-1.995401 0.70556,-0.870921 1.86311,-0.870921 1.01424,0 1.68672,0.755166 v -0.606338 h 1.24024 z m -1.19063,-2.546617 q 0,-0.782727 -0.41892,-1.25126 -0.42444,-0.479558 -1.0859,-0.479558 -0.70555,0 -1.11345,0.523655 -0.36932,0.468533 -0.36932,1.212675 0,0.733117 0.36932,1.20165 0.40239,0.512631 1.11345,0.512631 0.71107,0 1.12449,-0.518143 0.38033,-0.468533 0.38033,-1.20165 z"
       id="text11"
       aria-label="time saving" />
    <g
       id="path12">
      <path
         style="color:#000000;fill:#ffffff;stroke-linejoin:round;stroke-miterlimit:3.9;-inkscape-stroke:none"
         d="m 26.847164,98.221528 v 9.145332"
         id="path19" />
      <path
         style="color:#000000;fill:#ffaaaa;stroke-linejoin:round;stroke-miterlimit:3.9;-inkscape-stroke:none"
         d="m 26.347656,98.220703 v 9.146487 h 1 v -9.146487 z"
         id="path20" />
      <g
         id="g2">
        <path
           style="color:#000000;fill:#ffaaaa;fill-rule:evenodd;-inkscape-stroke:none"
           d="m 26.847164,108.36686 -3,-3 v -2 l 3,3 3,-3 v 2 z"
           id="path18" />
      </g>
    </g>
    <g
       id="path14">
      <path
         style="color:#000000;fill:#ffffff;stroke-linejoin:round;stroke-miterlimit:3.9;-inkscape-stroke:none"
         d="M 38.587787,108.36686 V 99.221528"
         id="path22" />
      <path
         style="color:#000000;fill:#aaeeff;stroke-linejoin:round;stroke-miterlimit:3.9;-inkscape-stroke:none"
         d="m 38.087891,99.220703 v 9.146487 h 1 v -9.146487 z"
         id="path23" />
      <g
         id="g21">
        <path
           style="color:#000000;fill:#aaeeff;fill-rule:evenodd;-inkscape-stroke:none"
           d="m 38.587787,98.221528 3,3.000002 v 2 l -3,-3 -3,3 v -2 z"
           id="path21" />
      </g>
    </g>
    <g
       id="path15">
      <path
         style="color:#000000;fill:#ffffff;stroke-linejoin:round;stroke-miterlimit:3.9;-inkscape-stroke:none"
         d="m 50.699167,98.221528 v 9.145332"
         id="path25" />
      <path
         style="color:#000000;fill:#ffaaaa;stroke-linejoin:round;stroke-miterlimit:3.9;-inkscape-stroke:none"
         d="m 50.199219,98.220703 v 9.146487 h 1 v -9.146487 z"
         id="path26" />
      <g
         id="g24">
        <path
           style="color:#000000;fill:#ffaaaa;fill-rule:evenodd;-inkscape-stroke:none"
           d="m 50.699167,108.36686 -3,-3 v -2 l 3,3 3,-3 v 2 z"
           id="path24" />
      </g>
    </g>
    <g
       id="path16">
      <path
         style="color:#000000;fill:#ffffff;stroke-linejoin:round;stroke-miterlimit:3.9;-inkscape-stroke:none"
         d="M 62.43979,108.36686 V 99.221528"
         id="path28" />
      <path
         style="color:#000000;fill:#aaeeff;stroke-linejoin:round;stroke-miterlimit:3.9;-inkscape-stroke:none"
         d="m 61.939453,99.220703 v 9.146487 h 1 v -9.146487 z"
         id="path29" />
      <g
         id="g27">
        <path
           style="color:#000000;fill:#aaeeff;fill-rule:evenodd;-inkscape-stroke:none"
           d="m 62.43979,98.221528 3,3.000002 v 2 l -3,-3 -3,3 v -2 z"
           id="path27" />
      </g>
    </g>
    <path
       style="fill:#aaeeff;fill-opacity:1;stroke:#ffffff;stroke-width:1;stroke-linejoin:round;stroke-miterlimit:3.9;stroke-dasharray:1, 1;stroke-dashoffset:0"
       d="M 193.10103,44.698782 V 109.52682"
       id="path17" />
  </g>
</svg>
