<?xml version="1.0" encoding="UTF-8" standalone="no"?>
<svg
   version="1.0"
   width="1280.000000pt"
   height="944.000000pt"
   viewBox="0 0 1280.000000 944.000000"
   preserveAspectRatio="xMidYMid meet"
   id="svg1"
   sodipodi:docname="303565.svg"
   inkscape:version="1.3 (0e150ed, 2023-07-21)"
   xmlns:inkscape="http://www.inkscape.org/namespaces/inkscape"
   xmlns:sodipodi="http://sodipodi.sourceforge.net/DTD/sodipodi-0.dtd"
   xmlns="http://www.w3.org/2000/svg"
   xmlns:svg="http://www.w3.org/2000/svg">
  <defs
     id="defs1" />
  <sodipodi:namedview
     id="namedview1"
     pagecolor="#ffffff"
     bordercolor="#000000"
     borderopacity="0.25"
     inkscape:showpageshadow="2"
     inkscape:pageopacity="0.0"
     inkscape:pagecheckerboard="0"
     inkscape:deskcolor="#d1d1d1"
     inkscape:document-units="pt"
     inkscape:zoom="0.1875"
     inkscape:cx="850.66667"
     inkscape:cy="629.33333"
     inkscape:window-width="1312"
     inkscape:window-height="431"
     inkscape:window-x="0"
     inkscape:window-y="34"
     inkscape:window-maximized="0"
     inkscape:current-layer="svg1" />
  <metadata
     id="metadata1">&#10;Created by potrace 1.15, written by Peter Selinger 2001-2017&#10;</metadata>
  <g
     transform="translate(0.000000,944.000000) scale(0.100000,-0.100000)"
     fill="#000000"
     stroke="none"
     id="g1"
     style="fill:#ffffff">
    <path
       d="M6040 9370 c-215 -68 -627 -197 -1862 -584 -361 -113 -669 -206 -683 -206 -14 0 -25 -4 -25 -8 0 -5 -30 -18 -67 -29 -247 -75 -3371 -1056 -3382 -1063 -9 -5 389 -210 1135 -585 632 -318 1153 -581 1157 -585 5 -4 0 -45 -10 -91 -15 -72 -18 -135 -18 -459 0 -206 2 -520 5 -696 l5 -322 -47 -49 c-87 -94 -128 -209 -129 -358 -1 -143 34 -259 102 -345 l40 -51 39 -337 c47 -401 48 -405 62 -396 24 15 -3 -848 -42 -1311 -71 -841 -87 -1066 -100 -1362 l-11 -243 30 -62 c45 -94 91 -142 179 -185 73 -36 80 -38 176 -38 113 0 166 14 281 74 98 50 199 154 249 254 51 104 61 181 47 364 -25 324 -76 635 -271 1668 -145 768 -161 856 -166 950 -2 50 -21 228 -42 396 l-37 306 26 59 c39 88 51 148 50 254 0 104 -17 184 -56 261 -31 60 -87 125 -128 145 -26 14 -28 19 -23 47 4 18 -1 276 -10 575 -12 419 -14 574 -5 683 6 77 13 144 16 149 4 7 1151 -555 1172 -574 0 0 29 -361 62 -801 34 -440 63 -816 66 -835 3 -19 10 -143 15 -275 10 -252 30 -405 75 -570 90 -332 202 -557 358 -722 84 -88 126 -116 297 -194 1069 -486 2039 -619 3055 -418 402 79 865 231 1155 380 302 154 475 281 629 463 160 188 194 288 227 666 19 221 18 334 -6 638 -21 274 -29 373 -60 792 -31 419 -39 518 -60 792 -11 141 -20 268 -20 281 0 21 169 116 1650 923 907 494 1650 902 1650 905 0 4 -14 9 -30 13 -17 3 -274 73 -573 155 -298 82 -920 254 -1382 381 -462 127 -1216 335 -1675 461 -764 211 -1688 465 -2534 698 -182 50 -332 91 -335 90 -3 0 -103 -31 -221 -69z"
       id="path1"
       style="fill:#ffffff" />
  </g>
</svg>
