<?xml version="1.0" encoding="UTF-8" standalone="no"?>
<!-- Created with Inkscape (http://www.inkscape.org/) -->

<svg
   width="166.66992mm"
   height="13.91932mm"
   viewBox="0 0 166.66992 13.919321"
   version="1.1"
   id="svg1"
   inkscape:version="1.3 (0e150ed, 2023-07-21)"
   sodipodi:docname="rse.svg"
   xmlns:inkscape="http://www.inkscape.org/namespaces/inkscape"
   xmlns:sodipodi="http://sodipodi.sourceforge.net/DTD/sodipodi-0.dtd"
   xmlns="http://www.w3.org/2000/svg"
   xmlns:svg="http://www.w3.org/2000/svg">
  <sodipodi:namedview
     id="namedview1"
     pagecolor="#ffffff"
     bordercolor="#666666"
     borderopacity="1.0"
     inkscape:showpageshadow="2"
     inkscape:pageopacity="0.0"
     inkscape:pagecheckerboard="0"
     inkscape:deskcolor="#d1d1d1"
     inkscape:document-units="mm"
     inkscape:zoom="2.2767587"
     inkscape:cx="230.81058"
     inkscape:cy="42.384816"
     inkscape:window-width="2560"
     inkscape:window-height="1308"
     inkscape:window-x="0"
     inkscape:window-y="30"
     inkscape:window-maximized="1"
     inkscape:current-layer="layer1" />
  <defs
     id="defs1" />
  <g
     inkscape:label="Layer 1"
     inkscape:groupmode="layer"
     id="layer1"
     transform="translate(-16.326172,-130.30917)">
    <path
       style="fill:none;stroke:#d5e5ff;stroke-width:1;stroke-linecap:butt;stroke-linejoin:miter;stroke-dasharray:none;stroke-opacity:1"
       d="M 37.244485,142.24024 H 162.07901"
       id="path1" />
    <path
       style="fill:none;stroke:#d5e5ff;stroke-width:1;stroke-linecap:butt;stroke-linejoin:miter;stroke-dasharray:none;stroke-opacity:1"
       d="m 161.94672,140.22336 v 4.03376"
       id="path2" />
    <path
       style="fill:none;stroke:#d5e5ff;stroke-width:1;stroke-linecap:butt;stroke-linejoin:miter;stroke-dasharray:none;stroke-opacity:1"
       d="m 37.376776,140.22336 v 4.03376"
       id="path3" />
    <path
       d="m 30.08937,136.92033 0.988053,1.36013 h -0.589111 l -0.911572,-1.30638 h -0.08682 v 1.30638 H 29.0083 v -3.19154 h 0.564306 q 0.632519,0 0.913639,0.23771 0.310058,0.26459 0.310058,0.69867 0,0.339 -0.194303,0.58291 -0.194303,0.24391 -0.51263,0.31212 z m -0.599446,-0.36586 h 0.152962 q 0.684196,0 0.684196,-0.52297 0,-0.48989 -0.665592,-0.48989 h -0.171566 z m 3.743438,0.82888 h -1.442805 q 0.0186,0.24805 0.16123,0.39481 0.142627,0.1447 0.365869,0.1447 0.173633,0 0.287321,-0.0827 0.111621,-0.0827 0.254248,-0.30592 l 0.39274,0.21911 q -0.09095,0.15503 -0.192236,0.26665 -0.101286,0.10955 -0.217041,0.1819 -0.115755,0.0703 -0.250114,0.10335 -0.134358,0.0331 -0.291454,0.0331 -0.450619,0 -0.72347,-0.28938 -0.272851,-0.29146 -0.272851,-0.77308 0,-0.47749 0.264583,-0.77308 0.26665,-0.29146 0.706933,-0.29146 0.444417,0 0.702799,0.28319 0.256315,0.28112 0.256315,0.77928 z m -0.47749,-0.38033 q -0.09715,-0.37207 -0.469222,-0.37207 -0.08475,0 -0.159163,0.0269 -0.07441,0.0248 -0.136426,0.0744 -0.05994,0.0475 -0.103353,0.11576 -0.04341,0.0682 -0.06614,0.15503 z m 2.155939,-0.39274 -0.384473,0.20463 q -0.09095,-0.18603 -0.225309,-0.18603 -0.06408,0 -0.109554,0.0434 -0.04548,0.0413 -0.04548,0.10748 0,0.11576 0.268717,0.22945 0.370003,0.15916 0.498161,0.29352 0.128157,0.13436 0.128157,0.36173 0,0.29146 -0.214973,0.48783 -0.208773,0.18603 -0.504362,0.18603 -0.506429,0 -0.717268,-0.49402 l 0.396874,-0.18397 q 0.08268,0.14469 0.126091,0.18397 0.08475,0.0785 0.202571,0.0785 0.235645,0 0.235645,-0.21498 0,-0.12402 -0.181901,-0.23151 -0.07028,-0.0351 -0.14056,-0.0682 -0.07028,-0.0331 -0.142627,-0.0682 -0.202571,-0.0992 -0.285254,-0.19844 -0.105419,-0.12609 -0.105419,-0.32453 0,-0.26251 0.179833,-0.43408 0.183968,-0.17157 0.446484,-0.17157 0.38654,0 0.574642,0.39895 z m 2.381248,0.77307 h -1.442805 q 0.0186,0.24805 0.161231,0.39481 0.142626,0.1447 0.365868,0.1447 0.173633,0 0.287321,-0.0827 0.111621,-0.0827 0.254248,-0.30592 l 0.392741,0.21911 q -0.09095,0.15503 -0.192237,0.26665 -0.101285,0.10955 -0.21704,0.1819 -0.115756,0.0703 -0.250114,0.10335 -0.134359,0.0331 -0.291455,0.0331 -0.450618,0 -0.723469,-0.28938 -0.272852,-0.29146 -0.272852,-0.77308 0,-0.47749 0.264583,-0.77308 0.26665,-0.29146 0.706933,-0.29146 0.444417,0 0.702799,0.28319 0.256315,0.28112 0.256315,0.77928 z m -0.47749,-0.38033 q -0.09715,-0.37207 -0.469221,-0.37207 -0.08475,0 -0.159164,0.0269 -0.07441,0.0248 -0.136425,0.0744 -0.05994,0.0475 -0.103353,0.11576 -0.04341,0.0682 -0.06615,0.15503 z m 2.470131,-0.73588 h 0.467155 v 2.01332 H 39.2857 v -0.21084 q -0.287321,0.26871 -0.61805,0.26871 -0.417545,0 -0.690396,-0.30179 -0.270784,-0.30799 -0.270784,-0.76894 0,-0.45269 0.270784,-0.75448 0.270784,-0.30179 0.677994,-0.30179 0.351399,0 0.630452,0.28939 z m -1.103808,1.00046 q 0,0.28939 0.155029,0.47129 0.159164,0.18397 0.401009,0.18397 0.258382,0 0.417545,-0.17777 0.159164,-0.18397 0.159164,-0.46716 0,-0.28318 -0.159164,-0.46715 -0.159163,-0.17983 -0.413411,-0.17983 -0.239778,0 -0.401008,0.1819 -0.159164,0.18397 -0.159164,0.45475 z m 2.158006,-1.00046 h 0.465088 v 0.17984 q 0.128157,-0.13436 0.227376,-0.18397 0.101286,-0.0517 0.239779,-0.0517 0.183967,0 0.384472,0.11989 l -0.212907,0.42582 q -0.132291,-0.0951 -0.258382,-0.0951 -0.380338,0 -0.380338,0.57464 v 1.04387 h -0.465088 z m 3.112986,0.0868 v 0.61805 q -0.159163,-0.1943 -0.285253,-0.26665 -0.124024,-0.0744 -0.291455,-0.0744 -0.262516,0 -0.436149,0.18396 -0.173632,0.18397 -0.173632,0.46096 0,0.28318 0.167431,0.46509 0.169499,0.1819 0.432015,0.1819 0.167431,0 0.295589,-0.0723 0.124023,-0.0703 0.291454,-0.27285 v 0.61391 q -0.283186,0.14676 -0.566373,0.14676 -0.467154,0 -0.781347,-0.30179 -0.314192,-0.30385 -0.314192,-0.75447 0,-0.45062 0.318326,-0.76068 0.318327,-0.31006 0.781347,-0.31006 0.297656,0 0.562239,0.14263 z m 0.560172,-1.56476 h 0.465088 v 1.64538 q 0.248046,-0.22325 0.547769,-0.22325 0.341065,0 0.545703,0.22118 0.173633,0.19224 0.173633,0.61391 v 1.23404 h -0.465088 v -1.19063 q 0,-0.24184 -0.08682,-0.34933 -0.08475,-0.10955 -0.274919,-0.10955 -0.243912,0 -0.343131,0.15089 -0.09715,0.15296 -0.09715,0.52503 v 0.97359 h -0.465088 z"
       id="text3"
       style="font-weight:500;font-size:4.23333px;line-height:1.25;font-family:Futura;-inkscape-font-specification:'Futura Medium';text-align:center;text-anchor:middle;fill:#d5e5ff;stroke-width:0.264583"
       aria-label="Research" />
    <path
       d="m 143.39282,135.56435 -0.39067,0.23151 q -0.10955,-0.19017 -0.20877,-0.24805 -0.10336,-0.0661 -0.26665,-0.0661 -0.20051,0 -0.3328,0.11369 -0.13229,0.11162 -0.13229,0.28112 0,0.23358 0.34726,0.37621 l 0.31833,0.13022 q 0.38861,0.1571 0.56844,0.38447 0.17983,0.22531 0.17983,0.55397 0,0.44029 -0.29352,0.72761 -0.29559,0.28938 -0.7338,0.28938 -0.41548,0 -0.68626,-0.24598 -0.26665,-0.24598 -0.3328,-0.69246 l 0.48782,-0.10749 q 0.0331,0.28112 0.11576,0.38861 0.14883,0.20671 0.43408,0.20671 0.22531,0 0.37414,-0.1509 0.14883,-0.15089 0.14883,-0.3824 0,-0.093 -0.0269,-0.1695 -0.0248,-0.0786 -0.0806,-0.14263 -0.0537,-0.0662 -0.14056,-0.12196 -0.0868,-0.0579 -0.20671,-0.10955 l -0.30799,-0.12816 q -0.65525,-0.27698 -0.65525,-0.81028 0,-0.35967 0.27492,-0.60152 0.27491,-0.24391 0.68419,-0.24391 0.5519,0 0.86196,0.53744 z m 0.47956,1.69498 q 0,-0.43615 0.31212,-0.74207 0.31213,-0.30593 0.76068,-0.30593 0.45062,0 0.76481,0.308 0.31006,0.30799 0.31006,0.75654 0,0.45268 -0.31213,0.75861 -0.31419,0.30385 -0.77101,0.30385 -0.45268,0 -0.75861,-0.31005 -0.30592,-0.30593 -0.30592,-0.76895 z m 0.47542,0.008 q 0,0.30179 0.16123,0.47749 0.16537,0.17777 0.43615,0.17777 0.27285,0 0.43615,-0.1757 0.1633,-0.1757 0.1633,-0.46923 0,-0.29352 -0.1633,-0.46922 -0.16536,-0.17776 -0.43615,-0.17776 -0.26665,0 -0.43201,0.17776 -0.16537,0.17777 -0.16537,0.45889 z m 2.64583,-0.56637 v 1.57923 h -0.46715 v -1.57923 h -0.16537 v -0.43409 h 0.16537 v -0.77721 q 0,-0.38034 0.13229,-0.53743 0.1819,-0.21911 0.52917,-0.21911 0.12402,0 0.31212,0.0723 v 0.47542 l -0.0475,-0.0248 q -0.1509,-0.0765 -0.24805,-0.0765 -0.12402,0 -0.16743,0.0889 -0.0434,0.0868 -0.0434,0.33486 v 0.66352 h 0.50643 v 0.43409 z m 1.40767,0 v 1.57923 h -0.46509 v -1.57923 h -0.19844 v -0.43409 h 0.19844 v -0.73793 h 0.46509 v 0.73793 h 0.36173 v 0.43409 z m 0.93017,-0.43409 0.5271,1.14929 0.56844,-1.33325 0.57258,1.33325 0.52089,-1.14929 h 0.5209 l -1.0542,2.16421 -0.56017,-1.29604 -0.56637,1.29604 -1.05213,-2.16421 z m 4.44004,0 h 0.46715 v 2.01332 h -0.46715 v -0.21084 q -0.28732,0.26871 -0.61805,0.26871 -0.41755,0 -0.6904,-0.30179 -0.27078,-0.30799 -0.27078,-0.76894 0,-0.45269 0.27078,-0.75448 0.27079,-0.30179 0.678,-0.30179 0.3514,0 0.63045,0.28939 z m -1.10381,1.00046 q 0,0.28939 0.15503,0.47129 0.15916,0.18397 0.40101,0.18397 0.25838,0 0.41754,-0.17777 0.15917,-0.18397 0.15917,-0.46716 0,-0.28318 -0.15917,-0.46715 -0.15916,-0.17983 -0.41341,-0.17983 -0.23978,0 -0.40101,0.1819 -0.15916,0.18397 -0.15916,0.45475 z m 2.15801,-1.00046 h 0.46508 v 0.17984 q 0.12816,-0.13436 0.22738,-0.18397 0.10129,-0.0517 0.23978,-0.0517 0.18397,0 0.38447,0.11989 l -0.21291,0.42582 q -0.13229,-0.0951 -0.25838,-0.0951 -0.38034,0 -0.38034,0.57464 v 1.04387 h -0.46508 z m 3.3879,1.11621 h -1.4428 q 0.0186,0.24805 0.16123,0.39481 0.14262,0.1447 0.36587,0.1447 0.17363,0 0.28732,-0.0827 0.11162,-0.0827 0.25424,-0.30592 l 0.39274,0.21911 q -0.091,0.15503 -0.19223,0.26665 -0.10129,0.10955 -0.21704,0.1819 -0.11576,0.0703 -0.25012,0.10335 -0.13435,0.0331 -0.29145,0.0331 -0.45062,0 -0.72347,-0.28938 -0.27285,-0.29146 -0.27285,-0.77308 0,-0.47749 0.26458,-0.77308 0.26665,-0.29146 0.70693,-0.29146 0.44442,0 0.7028,0.28319 0.25632,0.28112 0.25632,0.77928 z m -0.47749,-0.38033 q -0.0971,-0.37207 -0.46922,-0.37207 -0.0847,0 -0.15916,0.0269 -0.0744,0.0248 -0.13643,0.0744 -0.0599,0.0475 -0.10335,0.11576 -0.0434,0.0682 -0.0662,0.15503 z m 4.14238,-1.46141 h -1.27951 v 0.76688 h 1.2423 v 0.45268 h -1.2423 v 1.0666 h 1.27951 v 0.45269 h -1.76113 v -3.19154 h 1.76113 z m 0.54364,0.72553 h 0.46715 v 0.18604 q 0.24391,-0.24185 0.54984,-0.24185 0.3514,0 0.54777,0.22118 0.1695,0.1881 0.1695,0.61391 v 1.23404 h -0.46716 v -1.12448 q 0,-0.29766 -0.0827,-0.41135 -0.0806,-0.11575 -0.29352,-0.11575 -0.23151,0 -0.32866,0.15296 -0.0951,0.1509 -0.0951,0.5271 v 0.97152 h -0.46715 z m 4.26847,1.96577 q 0,0.14263 -0.0103,0.25012 -0.008,0.10955 -0.0248,0.19223 -0.0496,0.22738 -0.19431,0.39068 -0.27285,0.31419 -0.75034,0.31419 -0.40307,0 -0.66352,-0.21704 -0.26872,-0.22324 -0.31006,-0.61805 h 0.46715 q 0.0269,0.14883 0.0889,0.22944 0.14469,0.1881 0.42168,0.1881 0.51056,0 0.51056,-0.62631 v -0.28112 q -0.27699,0.28318 -0.63872,0.28318 -0.41135,0 -0.67386,-0.29765 -0.26459,-0.30179 -0.26459,-0.75448 0,-0.44028 0.24598,-0.74827 0.26459,-0.3266 0.69867,-0.3266 0.38034,0 0.63252,0.28319 v -0.22738 h 0.46509 z m -0.44649,-0.95498 q 0,-0.29352 -0.15709,-0.46922 -0.15917,-0.17983 -0.40721,-0.17983 -0.26459,0 -0.41755,0.19637 -0.13849,0.1757 -0.13849,0.45475 0,0.27492 0.13849,0.45062 0.1509,0.19224 0.41755,0.19224 0.26665,0 0.42167,-0.19431 0.14263,-0.1757 0.14263,-0.45062 z m 1.49862,-1.01079 v 2.01332 h -0.46509 v -2.01332 z m -0.53537,-0.83715 q 0,-0.12196 0.0889,-0.21084 0.0889,-0.0889 0.21291,-0.0889 0.12609,0 0.21497,0.0889 0.0889,0.0868 0.0889,0.2129 0,0.12609 -0.0889,0.21498 -0.0868,0.0889 -0.2129,0.0889 -0.12609,0 -0.21498,-0.0889 -0.0889,-0.0889 -0.0889,-0.21704 z m 1.12448,0.83715 h 0.46715 v 0.18604 q 0.24392,-0.24185 0.54984,-0.24185 0.3514,0 0.54777,0.22118 0.1695,0.1881 0.1695,0.61391 v 1.23404 h -0.46716 v -1.12448 q 0,-0.29766 -0.0827,-0.41135 -0.0806,-0.11575 -0.29352,-0.11575 -0.23151,0 -0.32866,0.15296 -0.0951,0.1509 -0.0951,0.5271 v 0.97152 h -0.46715 z m 4.15478,1.11621 h -1.44281 q 0.0186,0.24805 0.16123,0.39481 0.14263,0.1447 0.36587,0.1447 0.17364,0 0.28732,-0.0827 0.11163,-0.0827 0.25425,-0.30592 l 0.39274,0.21911 q -0.091,0.15503 -0.19223,0.26665 -0.10129,0.10955 -0.21704,0.1819 -0.11576,0.0703 -0.25012,0.10335 -0.13436,0.0331 -0.29145,0.0331 -0.45062,0 -0.72347,-0.28938 -0.27285,-0.29146 -0.27285,-0.77308 0,-0.47749 0.26458,-0.77308 0.26665,-0.29146 0.70693,-0.29146 0.44442,0 0.7028,0.28319 0.25632,0.28112 0.25632,0.77928 z m -0.47749,-0.38033 q -0.0971,-0.37207 -0.46922,-0.37207 -0.0847,0 -0.15917,0.0269 -0.0744,0.0248 -0.13642,0.0744 -0.0599,0.0475 -0.10335,0.11576 -0.0434,0.0682 -0.0662,0.15503 z m 2.81946,0.38033 h -1.4428 q 0.0186,0.24805 0.16123,0.39481 0.14263,0.1447 0.36587,0.1447 0.17363,0 0.28732,-0.0827 0.11162,-0.0827 0.25425,-0.30592 l 0.39274,0.21911 q -0.0909,0.15503 -0.19224,0.26665 -0.10128,0.10955 -0.21704,0.1819 -0.11576,0.0703 -0.25011,0.10335 -0.13436,0.0331 -0.29146,0.0331 -0.45062,0 -0.72347,-0.28938 -0.27285,-0.29146 -0.27285,-0.77308 0,-0.47749 0.26458,-0.77308 0.26665,-0.29146 0.70694,-0.29146 0.44441,0 0.7028,0.28319 0.25631,0.28112 0.25631,0.77928 z m -0.47749,-0.38033 q -0.0971,-0.37207 -0.46922,-0.37207 -0.0847,0 -0.15916,0.0269 -0.0744,0.0248 -0.13643,0.0744 -0.0599,0.0475 -0.10335,0.11576 -0.0434,0.0682 -0.0661,0.15503 z m 0.98599,-0.73588 h 0.46509 v 0.17984 q 0.12815,-0.13436 0.22737,-0.18397 0.10129,-0.0517 0.23978,-0.0517 0.18397,0 0.38447,0.11989 l -0.2129,0.42582 q -0.13229,-0.0951 -0.25838,-0.0951 -0.38034,0 -0.38034,0.57464 v 1.04387 h -0.46509 z m 2.11253,0 v 2.01332 h -0.46509 v -2.01332 z m -0.53537,-0.83715 q 0,-0.12196 0.0889,-0.21084 0.0889,-0.0889 0.21291,-0.0889 0.12609,0 0.21498,0.0889 0.0889,0.0868 0.0889,0.2129 0,0.12609 -0.0889,0.21498 -0.0868,0.0889 -0.21291,0.0889 -0.12609,0 -0.21498,-0.0889 -0.0889,-0.0889 -0.0889,-0.21704 z m 1.12448,0.83715 h 0.46716 v 0.18604 q 0.24391,-0.24185 0.54983,-0.24185 0.3514,0 0.54777,0.22118 0.1695,0.1881 0.1695,0.61391 v 1.23404 h -0.46715 v -1.12448 q 0,-0.29766 -0.0827,-0.41135 -0.0806,-0.11575 -0.29352,-0.11575 -0.23151,0 -0.32866,0.15296 -0.0951,0.1509 -0.0951,0.5271 v 0.97152 h -0.46716 z m 4.26847,1.96577 q 0,0.14263 -0.0103,0.25012 -0.008,0.10955 -0.0248,0.19223 -0.0496,0.22738 -0.1943,0.39068 -0.27285,0.31419 -0.75034,0.31419 -0.40308,0 -0.66353,-0.21704 -0.26872,-0.22324 -0.31006,-0.61805 h 0.46716 q 0.0269,0.14883 0.0889,0.22944 0.1447,0.1881 0.42168,0.1881 0.51056,0 0.51056,-0.62631 v -0.28112 q -0.27698,0.28318 -0.63872,0.28318 -0.41134,0 -0.67386,-0.29765 -0.26458,-0.30179 -0.26458,-0.75448 0,-0.44028 0.24598,-0.74827 0.26458,-0.3266 0.69866,-0.3266 0.38034,0 0.63252,0.28319 v -0.22738 h 0.46509 z m -0.44648,-0.95498 q 0,-0.29352 -0.1571,-0.46922 -0.15916,-0.17983 -0.40721,-0.17983 -0.26458,0 -0.41754,0.19637 -0.1385,0.1757 -0.1385,0.45475 0,0.27492 0.1385,0.45062 0.15089,0.19224 0.41754,0.19224 0.26665,0 0.42168,-0.19431 0.14263,-0.1757 0.14263,-0.45062 z"
       id="text4"
       style="font-weight:500;font-size:4.23333px;line-height:1.25;font-family:Futura;-inkscape-font-specification:'Futura Medium';text-align:center;text-anchor:middle;fill:#d5e5ff;stroke-width:0.264583"
       aria-label="Software Engineering" />
    <path
       id="path5"
       style="fill:none;stroke:#d5e5ff;stroke-width:0.5;stroke-linecap:butt;stroke-linejoin:miter;stroke-dasharray:none;stroke-opacity:1"
       d="m 126.81878,140.4829 c 0,0 -0.59332,-2.22643 -2.22642,-2.22643 H 96.521969 c -2.02127,0 -3.03405,-1.50304 -3.03405,-3.03404 0,1.531 -1.012776,3.03404 -3.034046,3.03404 H 62.383487 c -1.633099,0 -2.226424,2.22643 -2.226424,2.22643"
       sodipodi:nodetypes="csscssc" />
    <path
       d="m 65.027709,132.46748 0.988053,1.36013 h -0.589111 l -0.911572,-1.30638 h -0.08682 v 1.30638 h -0.481624 v -3.19154 h 0.564306 q 0.632519,0 0.913639,0.23771 0.310058,0.26459 0.310058,0.69867 0,0.339 -0.194303,0.58291 -0.194303,0.24391 -0.51263,0.31212 z m -0.599446,-0.36587 h 0.152962 q 0.684195,0 0.684195,-0.52296 0,-0.48989 -0.665591,-0.48989 h -0.171566 z m 3.743438,0.82889 h -1.442805 q 0.0186,0.24805 0.16123,0.39481 0.142627,0.1447 0.365869,0.1447 0.173633,0 0.287321,-0.0827 0.111621,-0.0827 0.254247,-0.30592 l 0.392741,0.21911 q -0.09095,0.15503 -0.192236,0.26665 -0.101286,0.10955 -0.217041,0.1819 -0.115755,0.0703 -0.250114,0.10335 -0.134358,0.0331 -0.291455,0.0331 -0.450618,0 -0.723469,-0.28938 -0.272851,-0.29146 -0.272851,-0.77308 0,-0.47749 0.264583,-0.77308 0.26665,-0.29146 0.706933,-0.29146 0.444417,0 0.702799,0.28319 0.256315,0.28112 0.256315,0.77928 z m -0.47749,-0.38033 q -0.09715,-0.37207 -0.469222,-0.37207 -0.08475,0 -0.159163,0.0269 -0.07441,0.0248 -0.136426,0.0744 -0.05994,0.0475 -0.103353,0.11576 -0.04341,0.0682 -0.06615,0.15503 z m 2.155939,-0.39274 -0.384473,0.20463 q -0.09095,-0.18603 -0.225309,-0.18603 -0.06408,0 -0.109554,0.0434 -0.04547,0.0413 -0.04547,0.10748 0,0.11576 0.268717,0.22945 0.370003,0.15916 0.498161,0.29352 0.128157,0.13436 0.128157,0.36173 0,0.29146 -0.214974,0.48783 -0.208772,0.18603 -0.504361,0.18603 -0.506429,0 -0.717268,-0.49402 l 0.396874,-0.18397 q 0.08268,0.14469 0.126091,0.18397 0.08475,0.0786 0.202571,0.0786 0.235644,0 0.235644,-0.21498 0,-0.12402 -0.1819,-0.23151 -0.07028,-0.0351 -0.14056,-0.0682 -0.07028,-0.0331 -0.142627,-0.0682 -0.202572,-0.0992 -0.285254,-0.19844 -0.10542,-0.12609 -0.10542,-0.32453 0,-0.26252 0.179834,-0.43408 0.183968,-0.17157 0.446484,-0.17157 0.38654,0 0.574642,0.39895 z m 2.381248,0.77307 h -1.442805 q 0.0186,0.24805 0.16123,0.39481 0.142627,0.1447 0.365869,0.1447 0.173633,0 0.287321,-0.0827 0.111621,-0.0827 0.254248,-0.30592 l 0.39274,0.21911 q -0.09095,0.15503 -0.192236,0.26665 -0.101285,0.10955 -0.217041,0.1819 -0.115755,0.0703 -0.250113,0.10335 -0.134359,0.0331 -0.291455,0.0331 -0.450618,0 -0.72347,-0.28938 -0.272851,-0.29146 -0.272851,-0.77308 0,-0.47749 0.264583,-0.77308 0.26665,-0.29146 0.706933,-0.29146 0.444417,0 0.702799,0.28319 0.256315,0.28112 0.256315,0.77928 z m -0.47749,-0.38033 q -0.09715,-0.37207 -0.469222,-0.37207 -0.08475,0 -0.159163,0.0269 -0.07441,0.0248 -0.136425,0.0744 -0.05994,0.0475 -0.103353,0.11576 -0.04341,0.0682 -0.06615,0.15503 z m 2.470131,-0.73588 h 0.467154 v 2.01332 h -0.467154 v -0.21084 q -0.287321,0.26871 -0.61805,0.26871 -0.417545,0 -0.690396,-0.30179 -0.270785,-0.30799 -0.270785,-0.76894 0,-0.45269 0.270785,-0.75448 0.270784,-0.30179 0.677994,-0.30179 0.351399,0 0.630452,0.28939 z m -1.103808,1.00046 q 0,0.28939 0.155029,0.47129 0.159164,0.18397 0.401009,0.18397 0.258382,0 0.417545,-0.17777 0.159164,-0.18397 0.159164,-0.46716 0,-0.28318 -0.159164,-0.46715 -0.159163,-0.17983 -0.413411,-0.17983 -0.239778,0 -0.401009,0.1819 -0.159163,0.18396 -0.159163,0.45475 z m 2.158006,-1.00046 h 0.465088 v 0.17984 q 0.128157,-0.13436 0.227376,-0.18397 0.101286,-0.0517 0.239778,-0.0517 0.183968,0 0.384473,0.11989 l -0.212907,0.42582 q -0.132292,-0.0951 -0.258382,-0.0951 -0.380338,0 -0.380338,0.57464 v 1.04387 h -0.465088 z m 3.112986,0.0868 v 0.61805 q -0.159163,-0.1943 -0.285253,-0.26665 -0.124024,-0.0744 -0.291455,-0.0744 -0.262516,0 -0.436149,0.18396 -0.173633,0.18397 -0.173633,0.46096 0,0.28318 0.167432,0.46508 0.169498,0.18191 0.432014,0.18191 0.167432,0 0.295589,-0.0724 0.124024,-0.0703 0.291455,-0.27285 v 0.61391 q -0.283186,0.14676 -0.566373,0.14676 -0.467155,0 -0.781347,-0.30179 -0.314192,-0.30385 -0.314192,-0.75447 0,-0.45062 0.318326,-0.76068 0.318327,-0.31006 0.781347,-0.31006 0.297656,0 0.562239,0.14263 z m 0.560172,-1.56476 h 0.465088 v 1.64538 q 0.248046,-0.22325 0.547769,-0.22325 0.341064,0 0.545703,0.22118 0.173633,0.19223 0.173633,0.61391 v 1.23404 H 80.2185 v -1.19063 q 0,-0.24184 -0.08682,-0.34933 -0.08475,-0.10955 -0.274919,-0.10955 -0.243912,0 -0.343131,0.15089 -0.09715,0.15296 -0.09715,0.52503 v 0.97359 h -0.465088 z m 5.521105,0.77515 -0.390674,0.23151 q -0.109554,-0.19017 -0.208772,-0.24805 -0.103353,-0.0661 -0.266651,-0.0661 -0.200504,0 -0.332796,0.11369 -0.132291,0.11162 -0.132291,0.28112 0,0.23358 0.347265,0.3762 l 0.318327,0.13023 q 0.388606,0.1571 0.56844,0.38447 0.179834,0.22531 0.179834,0.55397 0,0.44029 -0.293522,0.72761 -0.295589,0.28938 -0.733805,0.28938 -0.415478,0 -0.686262,-0.24598 -0.26665,-0.24598 -0.332796,-0.69246 l 0.487825,-0.10749 q 0.03307,0.28112 0.115755,0.38861 0.148828,0.20671 0.434082,0.20671 0.225309,0 0.374137,-0.1509 0.148828,-0.15089 0.148828,-0.3824 0,-0.093 -0.02687,-0.1695 -0.02481,-0.0786 -0.08061,-0.14263 -0.05374,-0.0661 -0.14056,-0.12196 -0.08682,-0.0579 -0.206705,-0.10955 l -0.307992,-0.12816 q -0.655256,-0.27698 -0.655256,-0.81028 0,-0.35967 0.274918,-0.60152 0.274918,-0.24391 0.684195,-0.24391 0.551904,0 0.861963,0.53744 z m 0.479557,1.69498 q 0,-0.43615 0.312126,-0.74207 0.312125,-0.30593 0.760676,-0.30593 0.450618,0 0.764811,0.30799 0.310058,0.308 0.310058,0.75655 0,0.45268 -0.312125,0.75861 -0.314193,0.30385 -0.771012,0.30385 -0.452685,0 -0.758609,-0.31005 -0.305925,-0.30593 -0.305925,-0.76895 z m 0.475423,0.008 q 0,0.30179 0.161231,0.47749 0.165364,0.17777 0.436148,0.17777 0.272852,0 0.436149,-0.1757 0.163297,-0.1757 0.163297,-0.46923 0,-0.29352 -0.163297,-0.46922 -0.165364,-0.17776 -0.436149,-0.17776 -0.26665,0 -0.432014,0.17776 -0.165365,0.17777 -0.165365,0.45889 z m 2.645832,-0.56637 v 1.57923 h -0.467154 v -1.57923 h -0.165365 v -0.43409 h 0.165365 v -0.77721 q 0,-0.38034 0.132291,-0.53743 0.181901,-0.21911 0.529166,-0.21911 0.124024,0 0.312126,0.0724 v 0.47542 l -0.04754,-0.0248 q -0.150895,-0.0765 -0.248046,-0.0765 -0.124024,0 -0.167432,0.0889 -0.04341,0.0868 -0.04341,0.33486 v 0.66352 h 0.506429 v 0.43409 z m 1.407664,0 v 1.57923 h -0.465088 v -1.57923 h -0.198437 v -0.43409 h 0.198437 v -0.73793 h 0.465088 v 0.73793 h 0.361735 v 0.43409 z m 0.930175,-0.43409 0.527099,1.14929 0.56844,-1.33325 0.572574,1.33325 0.520898,-1.14929 h 0.520898 l -1.054198,2.16421 -0.560172,-1.29604 -0.566373,1.29604 -1.052131,-2.16421 z m 4.440036,0 h 0.467154 v 2.01332 h -0.467154 v -0.21084 q -0.287321,0.26871 -0.61805,0.26871 -0.417545,0 -0.690397,-0.30179 -0.270784,-0.30799 -0.270784,-0.76894 0,-0.45269 0.270784,-0.75448 0.270785,-0.30179 0.677995,-0.30179 0.351399,0 0.630452,0.28939 z m -1.103808,1.00046 q 0,0.28939 0.155029,0.47129 0.159163,0.18397 0.401009,0.18397 0.258382,0 0.417545,-0.17777 0.159163,-0.18397 0.159163,-0.46716 0,-0.28318 -0.159163,-0.46715 -0.159163,-0.17983 -0.413411,-0.17983 -0.239779,0 -0.401009,0.1819 -0.159163,0.18396 -0.159163,0.45475 z m 2.158007,-1.00046 h 0.465087 v 0.17984 q 0.128158,-0.13436 0.227377,-0.18397 0.101285,-0.0517 0.239778,-0.0517 0.183968,0 0.384472,0.11989 l -0.212906,0.42582 q -0.132292,-0.0951 -0.258382,-0.0951 -0.380339,0 -0.380339,0.57464 v 1.04387 h -0.465087 z m 3.387903,1.11621 h -1.442805 q 0.0186,0.24805 0.16123,0.39481 0.142627,0.1447 0.365869,0.1447 0.173633,0 0.287321,-0.0827 0.111621,-0.0827 0.254247,-0.30592 l 0.392741,0.21911 q -0.09095,0.15503 -0.192236,0.26665 -0.101286,0.10955 -0.217041,0.1819 -0.115755,0.0703 -0.250114,0.10335 -0.134358,0.0331 -0.291455,0.0331 -0.450618,0 -0.723469,-0.28938 -0.272851,-0.29146 -0.272851,-0.77308 0,-0.47749 0.264583,-0.77308 0.26665,-0.29146 0.706933,-0.29146 0.444417,0 0.702799,0.28319 0.256315,0.28112 0.256315,0.77928 z m -0.47749,-0.38033 q -0.09715,-0.37207 -0.469222,-0.37207 -0.08475,0 -0.159163,0.0269 -0.07441,0.0248 -0.136426,0.0744 -0.05994,0.0475 -0.103353,0.11576 -0.04341,0.0682 -0.06615,0.15503 z m 4.142381,-1.46141 h -1.27951 v 0.76688 h 1.2423 v 0.45268 h -1.2423 v 1.0666 h 1.27951 v 0.45269 h -1.76113 v -3.19154 h 1.76113 z m 0.54363,0.72553 h 0.46716 v 0.18604 q 0.24391,-0.24185 0.54984,-0.24185 0.35139,0 0.54776,0.22118 0.1695,0.1881 0.1695,0.61391 v 1.23404 h -0.46715 v -1.12448 q 0,-0.29766 -0.0827,-0.41135 -0.0806,-0.11575 -0.29353,-0.11575 -0.23151,0 -0.32866,0.15296 -0.0951,0.1509 -0.0951,0.5271 v 0.97152 h -0.46716 z m 4.26847,1.96577 q 0,0.14263 -0.0103,0.25012 -0.008,0.10955 -0.0248,0.19223 -0.0496,0.22738 -0.1943,0.39068 -0.27285,0.31419 -0.75034,0.31419 -0.40308,0 -0.66352,-0.21704 -0.26872,-0.22324 -0.31006,-0.61805 h 0.46715 q 0.0269,0.14883 0.0889,0.22944 0.1447,0.1881 0.42168,0.1881 0.51057,0 0.51057,-0.62631 v -0.28112 q -0.27699,0.28318 -0.63872,0.28318 -0.41135,0 -0.67386,-0.29765 -0.26459,-0.30179 -0.26459,-0.75448 0,-0.44028 0.24598,-0.74827 0.26459,-0.3266 0.69867,-0.3266 0.38034,0 0.63252,0.28319 v -0.22738 h 0.46508 z m -0.44648,-0.95498 q 0,-0.29352 -0.1571,-0.46922 -0.15916,-0.17983 -0.40721,-0.17983 -0.26458,0 -0.41754,0.19637 -0.13849,0.1757 -0.13849,0.45475 0,0.27492 0.13849,0.45062 0.15089,0.19224 0.41754,0.19224 0.26665,0 0.42168,-0.19431 0.14263,-0.1757 0.14263,-0.45062 z m 1.49862,-1.01079 v 2.01332 h -0.46509 v -2.01332 z m -0.53537,-0.83715 q 0,-0.12196 0.0889,-0.21084 0.0889,-0.0889 0.21291,-0.0889 0.12609,0 0.21497,0.0889 0.0889,0.0868 0.0889,0.2129 0,0.12609 -0.0889,0.21498 -0.0868,0.0889 -0.2129,0.0889 -0.12609,0 -0.21498,-0.0889 -0.0889,-0.0889 -0.0889,-0.21704 z m 1.12448,0.83715 h 0.46715 v 0.18604 q 0.24391,-0.24185 0.54984,-0.24185 0.3514,0 0.54777,0.22118 0.1695,0.1881 0.1695,0.61391 v 1.23404 h -0.46716 v -1.12448 q 0,-0.29766 -0.0827,-0.41135 -0.0806,-0.11575 -0.29352,-0.11575 -0.23151,0 -0.32866,0.15296 -0.0951,0.1509 -0.0951,0.5271 v 0.97152 h -0.46715 z m 4.15478,1.11621 h -1.44281 q 0.0186,0.24805 0.16123,0.39481 0.14263,0.1447 0.36587,0.1447 0.17363,0 0.28732,-0.0827 0.11162,-0.0827 0.25425,-0.30592 l 0.39274,0.21911 q -0.0909,0.15503 -0.19224,0.26665 -0.10128,0.10955 -0.21704,0.1819 -0.11575,0.0703 -0.25011,0.10335 -0.13436,0.0331 -0.29146,0.0331 -0.45061,0 -0.72347,-0.28938 -0.27285,-0.29146 -0.27285,-0.77308 0,-0.47749 0.26459,-0.77308 0.26665,-0.29146 0.70693,-0.29146 0.44442,0 0.7028,0.28319 0.25631,0.28112 0.25631,0.77928 z m -0.47749,-0.38033 q -0.0972,-0.37207 -0.46923,-0.37207 -0.0847,0 -0.15916,0.0269 -0.0744,0.0248 -0.13642,0.0744 -0.06,0.0475 -0.10336,0.11576 -0.0434,0.0682 -0.0661,0.15503 z m 2.81946,0.38033 h -1.4428 q 0.0186,0.24805 0.16123,0.39481 0.14262,0.1447 0.36587,0.1447 0.17363,0 0.28732,-0.0827 0.11162,-0.0827 0.25425,-0.30592 l 0.39274,0.21911 q -0.091,0.15503 -0.19224,0.26665 -0.10129,0.10955 -0.21704,0.1819 -0.11576,0.0703 -0.25011,0.10335 -0.13436,0.0331 -0.29146,0.0331 -0.45062,0 -0.72347,-0.28938 -0.27285,-0.29146 -0.27285,-0.77308 0,-0.47749 0.26458,-0.77308 0.26665,-0.29146 0.70694,-0.29146 0.44441,0 0.70279,0.28319 0.25632,0.28112 0.25632,0.77928 z m -0.47749,-0.38033 q -0.0971,-0.37207 -0.46922,-0.37207 -0.0847,0 -0.15916,0.0269 -0.0744,0.0248 -0.13643,0.0744 -0.0599,0.0475 -0.10335,0.11576 -0.0434,0.0682 -0.0661,0.15503 z m 0.98599,-0.73588 h 0.46508 v 0.17984 q 0.12816,-0.13436 0.22738,-0.18397 0.10129,-0.0517 0.23978,-0.0517 0.18397,0 0.38447,0.11989 l -0.21291,0.42582 q -0.13229,-0.0951 -0.25838,-0.0951 -0.38034,0 -0.38034,0.57464 v 1.04387 h -0.46508 z m 2.11253,0 v 2.01332 h -0.46509 v -2.01332 z m -0.53537,-0.83715 q 0,-0.12196 0.0889,-0.21084 0.0889,-0.0889 0.2129,-0.0889 0.12609,0 0.21498,0.0889 0.0889,0.0868 0.0889,0.2129 0,0.12609 -0.0889,0.21498 -0.0868,0.0889 -0.21291,0.0889 -0.12609,0 -0.21497,-0.0889 -0.0889,-0.0889 -0.0889,-0.21704 z m 1.12448,0.83715 h 0.46715 v 0.18604 q 0.24391,-0.24185 0.54984,-0.24185 0.3514,0 0.54777,0.22118 0.1695,0.1881 0.1695,0.61391 v 1.23404 h -0.46716 v -1.12448 q 0,-0.29766 -0.0827,-0.41135 -0.0806,-0.11575 -0.29352,-0.11575 -0.23151,0 -0.32866,0.15296 -0.0951,0.1509 -0.0951,0.5271 v 0.97152 h -0.46715 z m 4.26847,1.96577 q 0,0.14263 -0.0103,0.25012 -0.008,0.10955 -0.0248,0.19223 -0.0496,0.22738 -0.1943,0.39068 -0.27286,0.31419 -0.75035,0.31419 -0.40307,0 -0.66352,-0.21704 -0.26872,-0.22324 -0.31006,-0.61805 h 0.46716 q 0.0269,0.14883 0.0889,0.22944 0.14469,0.1881 0.42168,0.1881 0.51056,0 0.51056,-0.62631 v -0.28112 q -0.27698,0.28318 -0.63872,0.28318 -0.41134,0 -0.67386,-0.29765 -0.26458,-0.30179 -0.26458,-0.75448 0,-0.44028 0.24598,-0.74827 0.26458,-0.3266 0.69866,-0.3266 0.38034,0 0.63252,0.28319 v -0.22738 h 0.46509 z m -0.44649,-0.95498 q 0,-0.29352 -0.15709,-0.46922 -0.15917,-0.17983 -0.40721,-0.17983 -0.26458,0 -0.41755,0.19637 -0.13849,0.1757 -0.13849,0.45475 0,0.27492 0.13849,0.45062 0.1509,0.19224 0.41755,0.19224 0.26665,0 0.42168,-0.19431 0.14262,-0.1757 0.14262,-0.45062 z"
       id="text5"
       style="font-weight:500;font-size:4.23333px;line-height:1.25;font-family:Futura;-inkscape-font-specification:'Futura Medium';text-align:center;text-anchor:middle;fill:#d5e5ff;stroke-width:0.264583"
       aria-label="Research Software Engineering" />
  </g>
</svg>
